<mxfile host="app.diagrams.net" modified="2023-10-19T01:51:06.275Z" agent="Mozilla/5.0 (Windows NT 10.0; Win64; x64) AppleWebKit/537.36 (KHTML, like Gecko) Chrome/117.0.0.0 Safari/537.36" etag="sL5nFOCtf71O9aRR4cDT" version="22.0.4" type="device">
  <diagram name="Page-1" id="ZD_wO4GdW9WNzEqeQvua">
    <mxGraphModel dx="1760" dy="956" grid="1" gridSize="10" guides="1" tooltips="1" connect="1" arrows="1" fold="1" page="1" pageScale="1" pageWidth="1169" pageHeight="827" math="0" shadow="0">
      <root>
        <mxCell id="0" />
        <mxCell id="1" parent="0" />
        <mxCell id="ipBrmCSyuH6E3BLv2_pk-1" value="" style="group" vertex="1" connectable="0" parent="1">
          <mxGeometry x="335" y="77" width="500" height="260" as="geometry" />
        </mxCell>
        <mxCell id="QrfO10kA7FmHQVanBoPY-1" value="&lt;b&gt;&lt;font style=&quot;font-size: 15px;&quot;&gt;Author&lt;/font&gt;&lt;/b&gt;" style="rounded=0;whiteSpace=wrap;html=1;strokeWidth=3;" parent="ipBrmCSyuH6E3BLv2_pk-1" vertex="1">
          <mxGeometry y="2.414860681114551" width="122.44897959183673" height="48.29721362229102" as="geometry" />
        </mxCell>
        <mxCell id="QrfO10kA7FmHQVanBoPY-2" value="" style="endArrow=none;html=1;rounded=0;strokeWidth=3;exitX=1;exitY=0.5;exitDx=0;exitDy=0;entryX=0;entryY=0.5;entryDx=0;entryDy=0;" parent="ipBrmCSyuH6E3BLv2_pk-1" source="QrfO10kA7FmHQVanBoPY-1" target="QrfO10kA7FmHQVanBoPY-3" edge="1">
          <mxGeometry width="50" height="50" relative="1" as="geometry">
            <mxPoint x="224.48979591836732" y="139.25696594427245" as="sourcePoint" />
            <mxPoint x="346.93877551020404" y="26.56346749226006" as="targetPoint" />
          </mxGeometry>
        </mxCell>
        <mxCell id="QrfO10kA7FmHQVanBoPY-3" value="&lt;font style=&quot;font-size: 15px;&quot;&gt;&lt;b&gt;Book&lt;/b&gt;&lt;/font&gt;" style="rounded=0;whiteSpace=wrap;html=1;strokeWidth=3;" parent="ipBrmCSyuH6E3BLv2_pk-1" vertex="1">
          <mxGeometry x="377.5510204081632" y="2.414860681114551" width="122.44897959183673" height="48.29721362229102" as="geometry" />
        </mxCell>
        <mxCell id="QrfO10kA7FmHQVanBoPY-4" value="" style="endArrow=none;html=1;rounded=0;strokeWidth=3;" parent="ipBrmCSyuH6E3BLv2_pk-1" edge="1">
          <mxGeometry width="50" height="50" relative="1" as="geometry">
            <mxPoint x="146.93877551020407" y="42.6625386996904" as="sourcePoint" />
            <mxPoint x="146.93877551020407" y="10.464396284829721" as="targetPoint" />
          </mxGeometry>
        </mxCell>
        <mxCell id="QrfO10kA7FmHQVanBoPY-6" value="" style="endArrow=none;html=1;rounded=0;strokeWidth=3;exitX=0;exitY=0.75;exitDx=0;exitDy=0;" parent="ipBrmCSyuH6E3BLv2_pk-1" source="QrfO10kA7FmHQVanBoPY-3" edge="1">
          <mxGeometry width="50" height="50" relative="1" as="geometry">
            <mxPoint x="357.1428571428571" y="66.81114551083591" as="sourcePoint" />
            <mxPoint x="346.93877551020404" y="26.56346749226006" as="targetPoint" />
          </mxGeometry>
        </mxCell>
        <mxCell id="QrfO10kA7FmHQVanBoPY-7" value="" style="endArrow=none;html=1;rounded=0;strokeWidth=3;exitX=0;exitY=0.75;exitDx=0;exitDy=0;" parent="ipBrmCSyuH6E3BLv2_pk-1" edge="1">
          <mxGeometry width="50" height="50" relative="1" as="geometry">
            <mxPoint x="377.5510204081632" y="14.489164086687307" as="sourcePoint" />
            <mxPoint x="346.93877551020404" y="26.56346749226006" as="targetPoint" />
          </mxGeometry>
        </mxCell>
        <mxCell id="QrfO10kA7FmHQVanBoPY-13" value="&lt;b&gt;&lt;font style=&quot;font-size: 15px;&quot;&gt;Book&lt;/font&gt;&lt;/b&gt;" style="rounded=0;whiteSpace=wrap;html=1;strokeWidth=3;" parent="ipBrmCSyuH6E3BLv2_pk-1" vertex="1">
          <mxGeometry y="107.05882352941175" width="122.44897959183673" height="48.29721362229102" as="geometry" />
        </mxCell>
        <mxCell id="QrfO10kA7FmHQVanBoPY-14" value="" style="endArrow=none;html=1;rounded=0;strokeWidth=3;exitX=1;exitY=0.5;exitDx=0;exitDy=0;entryX=0;entryY=0.5;entryDx=0;entryDy=0;" parent="ipBrmCSyuH6E3BLv2_pk-1" source="QrfO10kA7FmHQVanBoPY-13" target="QrfO10kA7FmHQVanBoPY-15" edge="1">
          <mxGeometry width="50" height="50" relative="1" as="geometry">
            <mxPoint x="224.48979591836732" y="243.90092879256966" as="sourcePoint" />
            <mxPoint x="346.93877551020404" y="131.20743034055727" as="targetPoint" />
          </mxGeometry>
        </mxCell>
        <mxCell id="QrfO10kA7FmHQVanBoPY-15" value="&lt;font style=&quot;font-size: 15px;&quot;&gt;&lt;b&gt;Library&lt;/b&gt;&lt;/font&gt;" style="rounded=0;whiteSpace=wrap;html=1;strokeWidth=3;" parent="ipBrmCSyuH6E3BLv2_pk-1" vertex="1">
          <mxGeometry x="377.5510204081632" y="107.05882352941175" width="122.44897959183673" height="48.29721362229102" as="geometry" />
        </mxCell>
        <mxCell id="QrfO10kA7FmHQVanBoPY-16" value="" style="endArrow=none;html=1;rounded=0;strokeWidth=3;" parent="ipBrmCSyuH6E3BLv2_pk-1" edge="1">
          <mxGeometry width="50" height="50" relative="1" as="geometry">
            <mxPoint x="346.93877551020404" y="147.3065015479876" as="sourcePoint" />
            <mxPoint x="346.93877551020404" y="115.10835913312692" as="targetPoint" />
          </mxGeometry>
        </mxCell>
        <mxCell id="QrfO10kA7FmHQVanBoPY-17" value="" style="endArrow=none;html=1;rounded=0;strokeWidth=3;" parent="ipBrmCSyuH6E3BLv2_pk-1" edge="1">
          <mxGeometry width="50" height="50" relative="1" as="geometry">
            <mxPoint x="153.0612244897959" y="131.20743034055727" as="sourcePoint" />
            <mxPoint x="122.44897959183673" y="143.28173374613002" as="targetPoint" />
          </mxGeometry>
        </mxCell>
        <mxCell id="QrfO10kA7FmHQVanBoPY-18" value="" style="endArrow=none;html=1;rounded=0;strokeWidth=3;" parent="ipBrmCSyuH6E3BLv2_pk-1" edge="1">
          <mxGeometry width="50" height="50" relative="1" as="geometry">
            <mxPoint x="153.0612244897959" y="131.20743034055727" as="sourcePoint" />
            <mxPoint x="122.44897959183673" y="119.13312693498452" as="targetPoint" />
          </mxGeometry>
        </mxCell>
        <mxCell id="QrfO10kA7FmHQVanBoPY-19" value="&lt;b&gt;&lt;font style=&quot;font-size: 14px;&quot;&gt;Library Member&lt;/font&gt;&lt;/b&gt;" style="rounded=0;whiteSpace=wrap;html=1;strokeWidth=3;" parent="ipBrmCSyuH6E3BLv2_pk-1" vertex="1">
          <mxGeometry y="211.70278637770897" width="122.44897959183673" height="48.29721362229102" as="geometry" />
        </mxCell>
        <mxCell id="QrfO10kA7FmHQVanBoPY-20" value="" style="endArrow=none;html=1;rounded=0;strokeWidth=3;exitX=1;exitY=0.5;exitDx=0;exitDy=0;entryX=0;entryY=0.5;entryDx=0;entryDy=0;" parent="ipBrmCSyuH6E3BLv2_pk-1" source="QrfO10kA7FmHQVanBoPY-19" target="QrfO10kA7FmHQVanBoPY-21" edge="1">
          <mxGeometry width="50" height="50" relative="1" as="geometry">
            <mxPoint x="224.48979591836732" y="348.54489164086687" as="sourcePoint" />
            <mxPoint x="346.93877551020404" y="235.85139318885447" as="targetPoint" />
          </mxGeometry>
        </mxCell>
        <mxCell id="QrfO10kA7FmHQVanBoPY-21" value="&lt;b&gt;&lt;font style=&quot;font-size: 14px;&quot;&gt;Borrowed Book&lt;/font&gt;&lt;/b&gt;" style="rounded=0;whiteSpace=wrap;html=1;strokeWidth=3;" parent="ipBrmCSyuH6E3BLv2_pk-1" vertex="1">
          <mxGeometry x="377.5510204081632" y="211.70278637770897" width="122.44897959183673" height="48.29721362229102" as="geometry" />
        </mxCell>
        <mxCell id="QrfO10kA7FmHQVanBoPY-23" value="" style="endArrow=none;html=1;rounded=0;strokeWidth=3;" parent="ipBrmCSyuH6E3BLv2_pk-1" edge="1">
          <mxGeometry width="50" height="50" relative="1" as="geometry">
            <mxPoint x="153.0612244897959" y="235.85139318885447" as="sourcePoint" />
            <mxPoint x="122.44897959183673" y="247.92569659442722" as="targetPoint" />
          </mxGeometry>
        </mxCell>
        <mxCell id="QrfO10kA7FmHQVanBoPY-24" value="" style="endArrow=none;html=1;rounded=0;strokeWidth=3;" parent="ipBrmCSyuH6E3BLv2_pk-1" edge="1">
          <mxGeometry width="50" height="50" relative="1" as="geometry">
            <mxPoint x="153.0612244897959" y="235.85139318885447" as="sourcePoint" />
            <mxPoint x="122.44897959183673" y="223.77708978328172" as="targetPoint" />
          </mxGeometry>
        </mxCell>
        <mxCell id="QrfO10kA7FmHQVanBoPY-25" value="" style="endArrow=none;html=1;rounded=0;strokeWidth=3;exitX=0;exitY=0.75;exitDx=0;exitDy=0;" parent="ipBrmCSyuH6E3BLv2_pk-1" edge="1">
          <mxGeometry width="50" height="50" relative="1" as="geometry">
            <mxPoint x="377.5510204081632" y="247.92569659442722" as="sourcePoint" />
            <mxPoint x="346.93877551020404" y="235.85139318885447" as="targetPoint" />
          </mxGeometry>
        </mxCell>
        <mxCell id="QrfO10kA7FmHQVanBoPY-26" value="" style="endArrow=none;html=1;rounded=0;strokeWidth=3;exitX=0;exitY=0.75;exitDx=0;exitDy=0;" parent="ipBrmCSyuH6E3BLv2_pk-1" edge="1">
          <mxGeometry width="50" height="50" relative="1" as="geometry">
            <mxPoint x="377.5510204081632" y="223.77708978328172" as="sourcePoint" />
            <mxPoint x="346.93877551020404" y="235.85139318885447" as="targetPoint" />
          </mxGeometry>
        </mxCell>
        <mxCell id="QrfO10kA7FmHQVanBoPY-27" value="WroteÂ " style="text;whiteSpace=wrap;align=center;fontStyle=1;fontSize=14;" parent="ipBrmCSyuH6E3BLv2_pk-1" vertex="1">
          <mxGeometry x="183.6734693877551" width="132.6530612244898" height="32.19814241486068" as="geometry" />
        </mxCell>
        <mxCell id="QrfO10kA7FmHQVanBoPY-28" value="Belongs to" style="text;whiteSpace=wrap;align=center;fontStyle=1;fontSize=14;" parent="ipBrmCSyuH6E3BLv2_pk-1" vertex="1">
          <mxGeometry x="183.6734693877551" y="105.44891640866872" width="132.6530612244898" height="32.19814241486068" as="geometry" />
        </mxCell>
        <mxCell id="QrfO10kA7FmHQVanBoPY-29" value="Borrows" style="text;whiteSpace=wrap;align=center;fontStyle=1;fontSize=14;" parent="ipBrmCSyuH6E3BLv2_pk-1" vertex="1">
          <mxGeometry x="183.6734693877551" y="211.70278637770897" width="132.6530612244898" height="32.19814241486068" as="geometry" />
        </mxCell>
        <mxCell id="ipBrmCSyuH6E3BLv2_pk-2" value="" style="shape=image;verticalLabelPosition=bottom;labelBackgroundColor=default;verticalAlign=top;aspect=fixed;imageAspect=0;image=data:image/png,iVBORw0KGgoAAAANSUhEUgAAAwMAAAGpCAYAAADROuqCAAAgAElEQVR4Aey9P68cR7fuN1+Fym5mwKKTDSYMiNeGAckwcJKjjZ0xM8SICo0310vhJtdwLECQ0pswPQcQoQ/giKHgz2G0UVVrVT2rurqneqaq/0w/BDZmprv+rvWrZ9Wqns19GYZh+POvL8P79+/5QxtMMvD8/Dx5j+xw7dzDANkiP/fwc2tdckfubmWndz2ySTZ7M5a3f2EyQOhyKEqfKU7kpMRFi2tki2y14GhpG+SO3C1lZq3yZJNsrsWa9sNkgE8Dqk78KU4UJxWN1q9ki2y1ZqqmPXJH7mo42aIM2SSba3PHZIDJAJMBMlDFQC9xYuBj4OvF1ly75I7czfGx5T2ySTbX5o/JADeCVRtBihPFqZc4kS2y1YutuXbJHbmb42PLe2STbK7NH5MBJgNMBshAFQO9xImBj4GvF1tz7ZI7cjfHx5b3yCbZXJs/JgPcCFZtBClOFKde4kS2yFYvtubaJXfkbo6PLe+RTbK5Nn+Pnwz8+9vh1eUyvHr7A2x6fxjefnMZLhf5+ebt8IMkBT+8fZWu631T/7vhtb/+evguJhJy7dvvoI/Hgvmo4nTdn3f4qcjWfHtT43Esvv5euAQe33//OrH7/WvP5uvv5/tYW0Tu7e8wbIm/o26oPqC/oiYs9NENLKHdI1c3jOW7b18Nb/89jPe7b50morYtnMet89+g3mG4m7FN9LuyKK823t3ow7uY1DiZ4myTMc3YAtfD0d+3YjOs5+QD1a4WMeQmrZjQ0LrxFOIj8GDGUxsra8tBPyW2wjpMOloq8/697jttOV3DW6+PUyYDwfgS8AQGdUTJqfZaEjmt8/49k4Ey/DcGoSsLb0lf1ndhPKVrS9qMZVsEy7nNW95+I+GK429o53vabBX47hlDVd3cH85+pWu32PWudjTIuKBvA821eeVrwQTUW+ZxoDqH4W7Gprn/nL9L165xULx/K5OlelmcLfY3M8+zlW/FZmk9l67dYt+b2hmxodpVcwCxIBmoZalRTK1ec9LfJR4cy95xbh9QO5c7y50yGQgQu5PY8Wa16FQDTEoGUuBlMnCLmKxR57o/AwPKhD85yRZmaENPV0C0jLApF3B/dnGWRADFTtuTfp14GA7fx8/htKe23zHza/hhro9WgW+ujyb3jL/VjuO1P8mL40HaGJ3QmbbV95U+1brfvh4/BdV7+mQUGdLAJKfJTg81wL/2TwgKycW18csYLtkaamL/2fWk/qh/PQx3M/Pen76hhs35QjeBQd/SwVqq/zYymNZBzmeI4bpeQluluL5H/ubG1IpNtVf6FkMhWZxa08LdVGzEtlXzkh8nfJ/rkeujoEnqQ8u3svF6eB2/2ZEOP3A8pk3Xx9Qcte9vw1N3p8t2DtNsJbu8Gl5/675RksYy59tQL5RVu+l848EyaLK2lfpznF9bExP2n9GSUycDY8cXFsp7DZDqaIHjm1c+8IYMT67FbG+5I9The31tJU5rz8+KSfALLkY3nvBZF5f1pa2vYiRfKwNhy9u8Pk/lKH1FLT5G1I0UtO/bU+FySay5l41rZsFfH9f67B6GLWNzsZP4RANILS/OD6YstL2UpdROgQNod8RQPoa4FvSgxK4Fy1x5/EdIAnQNHIa7mfWcfJ/Wbc7PqvqW8zYxdjMm1LX8qxRZe6Ge8unmbJkv2UP9faTXVmwaO3tfiL10M5nZN7efrW/1IN6TNtJpd2JxZPOsP38f/Y/vR/qkY8/3YiGGxvG4eZp2LCOlcjp2c2+OLWk/6H4+rpn5ex+IHfWrfXHfaMdpfOH6y/YFdsy4Jq71X75/ymQgz74wywoOCCcMenpnk4a0IAI4Dsx0bQT/hBgerVwrcVp73kv8qWNLi9AuTn8fRUZFsJDFa1vTr8KMLnAUar2WCyf0ncYYFnb4rAlNebFPj2Xb8odhK/N31Af1VxY8cl5yn0UdcsEgazudFF3zjWV01McMQ258efmkaa7fK23j1yPzfg6ge4fhbsaWwX918UrXf/K59W/O601MjjjINj5+reTxMny2GyvVMlvWbtbyQ5H0uX79XFtf29xvxWaw15gPtU9iQeeJ9sb34T6WN21HDdR2Jl5HfAiDmpxAjBvr05jX8XiEG9OO9nFJG2pdU1KueJiTj1U+O9vlHOI4dJ3NvYby9oRf15uORT+rr1x7xuaSRORjmet37t5Jk4EAasmwRacKMOOnALJYzFOCiUWg8B30tZU4zcHY495Vf+YL3myQxmJoThyk7nhTWMOAsnPbkwHDrp4wVD6m7GHne9o8DFsFVuKG3gezeV7Gog3lb2UpH9O1zyZITiUDuhGzwbdm/DGQHUDnDsPdjC33p2/AtBk3sJSzrvrlNzdQzte37Y0Y1NisbcjrkTgsaWcrNkf2ivEtfB1mfB/snWtJrBtO5kPdlGjgprU0J3+t6Hs96c9P9HN9ytmw981cMp3TuD2K1Vk5s55m2DJ9ZXaZnLtZD2BnvT7TXxjXZRjvQTVBUM2u2XuUy5w6GQhOE6dIZmtgUCfhCZh5rzDKgoiPe8rGroNkn3VbidPaNljqTze+VGcsPioqXvhU2L79TuoseVRnuQt2yfrLxRiEK41xn7ws8fNh2Mr9IfqQAkPmP3d/1mcQEG5kKQ/IMdjpSVs+ZhiPZT1wlObiPtv5jJkbj/9Im7DDcBfj0Hitj33iyoBfzPtQP9Wx/vVrFvm4iclCm378eB3Hl88Jy+VzKWx8cr5nbLVEk7Yu24pNu57F1mCzxIL6AX2D78N9LB/ahm9G1DwdgL6LNkb+TCx2/edsYKzO2MjaSX3JnPR3A7JyOD89mS9pWpr72C6pL7Vp6XVs2+n+8nnbukUf37AOTpgMiCEjuNawBgY1qAAToLDlo/C6EwkmA7v7r1Wv+zMTkSx42vrZojTClnNVEgC8Vio/177dWFrhyOoptwd5bRX46kQYfbDwvfG31rV+rOfFBjLrT9vm9LzK5cIYNDGVMuaRst7LxhAfQ+spU8ZVNn8z1+ze9JjVbtu/Hoa7mXVsfKDlTLzaQN+EBYyHYcOSvqZhNjBmQ5Yxl+mxqefna8sX7aF2OdBrKzbH9tI1LxqQrdvcfrZ+SUuCVoR6SVcm13/W36icuS++jU+89bP2Y/XPjNUwZceNBzTm/ZXkw9jGrDEdFzzhuMpaNqYrLOPc1Na6vvDeyJ5Xx5F0+ITJQPpeYTxFi4lBWijxnj5+jBv9ghMFDHXOPQ7Za91W4rT2/OLCUT/qa/RnWAxhQZWf8Jg2gBW7gcs261cXoRWyYBcb2OJJiBuz69cIXOovsKobuLS417b1rf0dhi3d5ChD8dXafpIXx4RpA4KHCYLJt7OP3k1AAr9rH8I4jue1/K8ZsV0tKydlNrDkPC4Y/1X+YbwblT0MdzP2Qd+amLUXfYtrJPt+tJ7yyv10+pozZ+Ot5VMZkjLSVmR7xm63atVa9VqxaeIa+CLZe2ZNi/1MG8CV9UXuN/VN9prrXMFHqb/8f+nRPvB/E0raa8aTx0rQOb9OdB5ZubCeQJc1GS2wldZePs5szoU5xkNkHUcsM8GyGf+r4ZX735RkL2LmHdupGYMt8/jJwB3GWWvhH6GfVuJ0hLlyjFYketuDbK1r797+PEr75I7c7ZVVskk212aTyQCThaqv9lCc6sUpnWykX67SU7tHOLVqLVJka4YtOblSfszr6FRpph3q3EjnyN1tvFDfbrPbEt08Lptyeg9PIZJm4Yl7fxsusXe7ssedP5MBBslRkCwtjOOK06OKzuPMi2w9ji9L2rHXa+SO3JFNMrBXBtYeF5MBJgNMBshAFQO9xImbMgbkXmzNtUvuyN0cH1veI5tkc23+mAxwI1i1EaQ4UZx6iRPZIlu92Jprl9yRuzk+trxHNsnm2vwxGWAywGSADFQx0EucGPgY+HqxNdcuuSN3c3xseY9sks21+WMywI1g1UaQ4kRx6iVOZIts9WJrrl1yR+7m+NjyHtkkm2vzx2SAyQCTATJQxUAvcWLgY+DrxdZcu+SO3M3xseU9skk21+bv8udfXwb38x//8R/8oQ3IABkgA2SADJABMkAGyMCJGIhPBr5+/TrwhzaYYsAli1P3eJ3c3MMA2SI/9/Bza11yR+5uZad3PbJJNnszlrfPZIBJUNUmn+JEccrFo9VnskW2WrG0pB1yR+6W8LJmWbJJNtfkzfXFZIDJAJMBMlDFQC9xYuBj4OvF1ly75I7czfGx5T2ySTbX5o/JADeCVRtBihPFqZc4kS2y1YutuXbJHbmb42PLe2STbK7NH5MBJgNMBshAFQO9xImBj4GvF1tz7ZI7cjfHx5b3yCbZXJu/0yQDv/94GS7/+Hn4km/8/vgwXC6X4cMfAt9//jy8u1z8tcvl3fDzf5aufxh+13ZM+Yk+tOyBX/csTl/+9W4wvlpi59z/U3X/+DC8+9cXv2meZGmqbnbd14+MCWs//h425MJT5DGru7ZArNHfntkqzj9f886Xqi0z/kNupt4X+5tiQNh1+nUz/8W2fx8+XC6R90VjKra3z8B+OO4a2zboZs5O8L1jSvVuqf9du2fSr6X2qSl/djanbfRl+Pkfl+Gi8dKtCdRB1eG567KO7to3NF6L0/NdTztPkQzEzReC4p2ZhC+Il4Am5VLAtgD66wqjBxGShgeExIG6Z3G6a1FXJQN2c5S4uG2hjurPbCD3IBK9x7Bntopzz/0ln/3mKb83oQcjBibKFfv3ZVGTrG5N16nl1fJ+f3u1/a5b7nDcLWZk3p4pGYDDMNhY3ZQMVPL/qEy1mtfZ2SzbUXTOHX7o/usralW4H7idui5rQjhte4gyv97Kc9pPnYdPBnzQvbwb3rlsMksGQkB+558EzCcDCNbXIYhoeDqA7/fu7HvGt2dxypOB4HM5cQefY/CLLGAyIO9tEAQBEhFCbsKp7NSTIrgOgTzUx6dUwBcGUx3bj+HpVXqCpZu/D8MHxzWeTLt+otC5ezqG0MflH4H3JKbbi9Ge2SquGfRRvjGXe+/+4Z5WBd8oT+j38vsrfgWGvkoQHPtR/CzBcnptvBs+/OjGKHwgMz9+sE8G8J6W/ypjlbIjBs1Yt2es5MfDcdfYpsqGj43CC2rbu3/9356DxBjolPJnGBf2Jq/poZlyLlr0j/9jeO/qFDd4+2SnxFPLa2dnc2xLYUb3cspKpsVRV6eug14HjVYmz8kZ2vkEyUBwdoREBdVvtD4Mv2fQfNUg58QpbiQ18IWvcvi25CtE4b1syPDrRtrPg7zuWZw0qPmvdKlfnd3Rt7qx9l8Hg6Cm1/8lXw9TkTF+g/Jfvw7of+0DTyP0EfmIOWlzdF3H4MZWGLMGyTBPt3lLwhi+xobjC+/HYwjXE9P7Eb89s4ViGd+jj4Azz4DcU58FVsKGG/1efj/n17G/Ag9OezCgiZ+F4/Ha0FNg7Qt4Ur0THueZxvrpUb1yF21l1tF4DluWOxx3jW2pbKSkULRDtND5P2mO+jiwpnWd/pgyZm0ERgJHWC5j5yves/1syceWfZ+dzbHtHTOgVTFOB2YDY8jV1HVhzWmd1znUzn3p09gGfcf38MmAGhSDr56q+cBVEC8TyDVAapB336X0p34OIoGvFHgbC7fOY6vXPYsTBqZgH9kQyQmV87MJWOgb2fiEU9wpYUBhkWRAucDHlKYtTRDDRhD9FjaIej+8asAsJQNxgyXtf/hDuItjgM+TYxCbRBHtKyw432vv98xWceygBXr6H5MsoyeWO9Sg8nvwo2c0/1zyGbDuebB+xrWRr4H02fKt+uiZnORJxqY8ZfMu2g3X3Q7eH467xjaLbPzhDkLeDT+bV/mdAe/XoIvIrPmeNh6CIQfyPq4Rr8cQN6N+6SFIoZ/Gcz4Cl26MZ2dz2k+Z7jg+QKPC3kxibuk68BzqTcX8ktY+9rVzJgMACQrVhz9sUIxiqb9ELMKUgmgGh2/3MeHaszihn8J7Of2EwDTvM/cUaO7rM5YLExQLyUDcvE8EMlNfWIx1YMwqcvFeLJtvEuFzLJOxqY/1dfM2MbZpEc7ba/d5z2wV7YE+yu2Y3UPu0O/l9+BH327+edrmaQ30SQYig3G+MjblKZt30W6x7vQ81qx3OO4a2y8xI77Up+HiSzxtffevn+1Xx5BPOHQxhxmmHfR5ietwrdwP1j3H+7OzOa0Dme5kawJ1FdvQ6//d/2cj9iDOPlk9B19oG31/zmQAATJBzILmAfLfkUXxwjKlwDs+CVZjH/l1X+KE/iicvur3mnFjjO/1azZuI4PX/ftSMleZDJgNN3JiBUaFSf9nq8CZ9Is8ytj0SVXaWErb8eshOD5kEseA1+14tuZyX2xV2AZ9hFri3mf3ks/sEyVkIL2f82s2LulHnygFhuAxupy6GraQdV0DI31LJ22hbeQGecL343lvzVRN/4fjLmftzs8pGdCvPuLTgPS/CYVybgOVtBG5Nswb/oURZNG/t9fVV6V+9N7ZXs/O5rS/M90xMXcqDuJ10NHJeA9l7lxj0/PYXx9MBox4paA2+tqIlPPXR483NdNMYnkkCGrGujtxQn9AkNLAFPwUTvt1w5SCDfw+SGmDhP71YiAC5E7Afvw9/M5ALJMJjW7g/WlZOTFMmz8VBNlwuTaRRx3b0l8gLo5B+tCT3B2J3O7YumYb9FFeNruHmyb0e/m9bpImfjE868vwDF/VSNf1l4STLoXkIGzs0nfFM93Lf4G4yFMWlLN512jK1mUOx13m/3vtFzgRNlRr4PeWVDejpkbNc7oFmii6GMYjOqP/NalwYeOpco7/iQIwaPpRjTzX69nZnGY70x23JlCfML5NXdd15O8nbZzu8xzsnSYZOLuj750/xWkDQcAArQLmXyeCqSmzwXhv7J9sqa86+zXjCROVe/XhiPXJnXJ35XWtRG+tfm7UqTUZJ5tXmDyAD9fkpUVfTAYIVdVfn6U4bSBO2eYtLfjOm8aV1wTZUrZ6+1Xal+94u9Pa8e8C6Fge/5XcXfdxfJLU+bR+rX6Shl6f+5Zlyea+/bMlG736ZjKw8sanlyN7t0txojj1Yoxska1ebM21S+7I3RwfW94jm2Rzbf6YDDAZ4JMBMlDFQC9xYuBj4OvF1ly75I7czfGx5T2ySTbX5o/JADeCVRtBihPFqZc4kS2y1YutuXbJHbmb42PLe2STbK7N3+XPv74M7sfBxx/agAyQATJABsgAGSADZIAMnIcBPhngkwE+GSADVQz0OqlwAadX22yXJ2xTDJA7sjHFxtbXySbZXJtBJgPcCFZtxChOFKde4kS2yFYvtubaJXfkbo6PLe+RTbK5Nn9MBpgMMBkgA1UM9BInBj4Gvl5szbVL7sjdHB9b3iObZHNt/pgMcCNYtRGkOFGceokT2SJbvdiaa5fckbs5Pra8RzbJ5tr8MRlgMsBkgAxUMdBLnBj4GPh6sTXXLrkjd3N8bHmPbJLNtfljMsCNYNVGkOJEceolTmSLbPVia65dckfu5vjY8h7ZJJtr83eaZMD/ufPSn1T/48NwuVyGD38IfP/58/DucvHXLpd3w8//Wbr+Yfg9JhFfhp//oeWhnXj/MaA+qjjFP3PvfFryf0M/ffnXu8QRtDtiL2cOyq4tAHvo76hs5bZz/r9cQBvEz4E70Ykff69KvvO2w+ffhw9Rm5zmQF93MyTj67xGyvPaRiMfhbtWNh3xK7Hw3b++3MHsNr5tZZOt2iGbBW5UT70Ggvbhnm2kX5nuYtmopdDW3TpaGPdB2jxFMhA3hCNQUnANyYANiGkTZ4Hy1yWopzJfh9DPY4J1SHGShe992zuwYV/Z4kdGfHBhMmA2F4dkK/Ox86vZTGnQGWnOrcFCtAqSibZ6Y7Vvq03Qmv0+CnetbGb4dXz31szCGmo1l6O3QzZznUT9Q63CvVkok5JXuec2/aCbkQ3ybeLwwycDIWC+G9650/ssMIdN2jv/JGA+GbCQJdG01yNkDyhyhxSniU138l8KeCoWeC+wE576JIHRpA+vi1DJSQOWdUwEzn4evigX+bjMiUd6GqVj+fCjPnn6MPzsT5/D5/LTrOMlo4dkS30Jr+qv378qD+iLQtD68UN8CvnuXz+nU/9MpxxDqe08SOpnCHwQ/EI90T/3pPP/ck9C3w0ffnRPMZAjqf+PD8MHfdLpx6HXlV+ch/Z9zNdH4a5V3BkxNtosKdeofcpmzthlePePwFjQqcq6+iQe1lWr+R2pHbI5rykxpgqjGgvj9a+qh8JlIRlIZef7OhI394z1BMlA2FyNHO83YB+G3zOYvkaIMHmwAdC35b9CFARORc983ejBxOyY4qSCgL5MCYAXEN2I48bnx9/D5ks3ZcCID5iF63qKpqKEizLwohv69OrLZgE3lA2byBCc5atnUi4kLTIvP47AoPY74vwAHB6TrXEAsRvv/CuDqCGyMRKOkp58Hb7miaL475pfDZe+jaB7hiHXlrQfElbkSNeKJqOibe4rItDeHOfI/BHePwp3rWytrGiSqK9jVhJHTne0nmqQZcytE+TsSt0D6FUre8+1QzbH+hrtJRrmYyHEZnc/6aRjzsVRYS9PBrJ6se0T8/fwyYA6OUHiIIMNlIHCgmPq6GbsoiceLmhKUBfQfPmm3+OdWRArQ3tocVLxcL7z339Nfg4+dk+H3g0//xF+X+TDH3JfTk5TUPzv5vdD0vUv8ZF6DIjgH8ORuy7jSYEUTpCBxxBk5Z5c16cOsU2Ym46n7XfJ+zN4aLbAz7opKvshMaf6Y3ypugH+V+2yQW7GH6BR+vtOYUy6wVf20ufIkQZNTXTN56SXhkmYO471KO8fhbtW9h75FjVnxGXiucwYJMNL6h6cqVa+IJsTOhc1TjQsYyvpmdZPnKJvfDnVXDLnvy50zmSguIFy4gWnYfHRfAqcClMSTVvenKA9GGDHFycRBdnseB/KVyJ08//hR/cVCjhNiBujTFhG17OnDZnvRwLVIRkoJSHK695fj89W4CPogmyCVGPiiRQGJasbJjBlwU19lzRHWbSvoQ3RKt93eB/qgYbBPdd2YtOuj/w015f78eeQDMc52THoWI/y+ijctbL3iDFh0SetIy4Tz2XGmAzc4xeyWdAWYdAdtsR4l3GZ9EzrJ06TP0rXtPx5X8+ZDOBmzcBkIQkBNt8cFsrgBvNBs80jipMNUmEDpr8boF930BPU4Ov0i0amLmygpq5re1GkgLGRQMlG0ZcV/kqnxKGvK08G9PvpfoNm2Uzit2+BOyJbJdsaf+lGOwYu9M3yZECfJkR+Y/u5PunXNm5MBuL/oGbHqE+zTCAGxkv22Pu1R+GulZ1zflXTgjYJv3oQAhpmNNExAffC2BbUPThTrXxBNvOYJQxFPdX707pq2MMDjCzmtvLZ0dthMmCSgXTCGx71w4malPPXVRC9cCVIdWN5dChK4z+mOKFv3Hf1ZWONflNfTgWw0S8F2zZ1Ex83a/GrSCpWePoq1/K+5HPOnAnOmYCZBMPUxzmmMZR8updrx2RrbFvjL8+YJKD4tMkHJbvRTocOSX9KSSUyFlgBXyMD/0j/KUJ5o5Z0LXEkXI9+gVjniXPRa8d+fRTuWq3jEb+Z5uT8qfaVGYPTW7MWyr98HP8Lb1/22Fy18AfZzBjA/Zd+fVdjN97Ta5Ej0bVCMlDW2Kzf2M7jXz9NMtBigZ65DYrT44vBVnyTrSOwZROYrVhp2S+5OwJ35xwj2Tyn31vq29K2mAycKPNbCgeWpzhRnJCHlu/J1r7ZCie/+ZO1fY+5hk9yd3wf1vj5iGXIJtlcm1smA0wGzB+emAKQ4kRxmmLj3utki2zdy9At9ckdubuFmzXqkE2yuQZn2AeTASYDTAbIQBUDKBwt3zPwMfC15Km2LXJH7mpZWbsc2SSbazN3+fOvL4P7cfDxhzYgA2SADJABMkAGyAAZIAPnYYBPBngqXHUq7ERh7UyV/Z3jdIRsncPPe1vP5I7c7Y1JHQ/ZJJvKwlqvTAaYDFRt8ilOFKdeokS2yFYvtubaJXfkbo6PLe+RTbK5Nn9MBpgMMBkgA1UM9BInBj4Gvl5szbVL7sjdHB9b3iObZHNt/pgMcCNYtRGkOFGceokT2SJbvdiaa5fckbs5Pra8RzbJ5tr8MRlgMsBkgAxUMdBLnBj4GPh6sTXXLrkjd3N8bHmPbJLNtfk7TTLw+4+X4TL6U9Vfh69/fBguF/jT6finrS/vhvhn0s31D8PvfgMZ/iqnq59+oM4DbTKPJE7e1+qTks9zv3gGlvkt/CEm5aCDcAlv/k+m4/t87A/w+Uhs3S7QX4af/zGhEzfwd/s4OrB6UAbPwd1yf6t+eu2p8u3vwwfVWbLc5GCFbBa4lb1a2GtB7MW9mXIYuRXd/fH35JepdmKdQt8nuHeKZEDFbZwMpM18ED4BR4BKCYQFyl9HuDwo0tbo+mOAdRhxwo2zvH/3ry9JCEqL+oYAtmoyUBrzA107DFs329zqitvIB34kAb2BPyYD9+vq43N3i41STLxUxrIUJ2/pj3VKa5ls5lzg/gr1FPdmoUyK93LPHQxGlgvtxHt5n+f6/PDJQEgE3g3v3KlcljUGEXs3vItPBhCyr0MSOQtZaSNYulZa5Ee9dhhxkqy/fKolQiBPDaJoZJux4Es9xYUTCNgMzvnb1BehSSw5gUEB042h9KfCVEhqzFOCH8MTLXdKEueh7fr5fRg+TD0Ng3nsgcfDsHWr3TK+RjaX+16jhM3S4UT+FDNom+Pm3fDhx3fD5ZJYNQzG68rdh+GD9JM0EQLn5TjsjGy5wEcPz90CW6gdAzdjnvx9PIGVp+YjzjLWR/dlTEEPPwwf4tOyxK6O5cyvZHN+Ix7jKcbJr7hnUz2TvZ/G1a9MBqbW1QmSgXD6FuFRgfSi9WH4PYMpbtRcsIzJgwbR8KgpBGH8WolNFqaMfeTrxxEnFQH0H2zA1afe//L1MAxgeF0311pH2Yknu4UAplz5sifQS8MAACAASURBVMAF9oHMTZXHMoX3etIRWAzj0EAevtomolcY+944PA5b8wFqyq7BLwVWlCdhLiR1wq/3G77PvtIodUzSoJv+0j1sr1DuqOxM2bzm+qNzV2MDWwZ4Q80BLTO6I9piYqtnD5946VdwoW3dtOnXcKWvdKhx2zqzczl2G2Rzxn+ib57FjNPEouPNaa5wF5MB167ERrfHM9dn+lStfuDXh08GVCASJAkGc9L6h7tuwTF1BDp/EvsPdwqXkgEbSB8TqMOJkwqGnpxnomF8DQHM+NwtfLinLLnXqQ2er6+nrvrqBSclBlh3sjyOd+p9No587PlnHP+e3h+OrYUBAf1dtHvGWPKb3UDhk4G8Tfyc6osWxfatvn0FrvI6+efiuBfaYW9tPDp3i+0NPER91MMEc8/GOMNKZA1PaXMO83tJGxeP+eAMTs2XbFrGop2Ew7j/yrg0LHo2Ms2TRMAcvDAh8F+jPmcy4AVLvwaSXj/8YUUpBNi06VcgMfC6a2MAJ0A+sHAdU5xgM5WJRgx2TggqA5j6373mDOg9z4KevGb+DpyER+N6CjZZHsc79T4bR85h/lnHuLfXY7K1YI0DX0XbZ/eT34Bfx5LoljvEyPnDz6l+vgnLAiNwldfJPxfHnfF9tDIPz91C/wSGUjwMv6gp8Q9Yyf1sWAGWzfXIb2jP3rNxN2//jJ/JZkFfhUHHZXgi+nXAAw3HieXKtTGtebH8RLw+G3fnTAZQJI3IWXA8WB4UDMq2THzk9ODZ5VHEKQQ0TeBCkAmPAtGHdmOFyQBuuKKQ6OkYcIObLyMasGHLhUo/x1ONGCBF3JDFmvdZMlCce2HsZrwwp62uH4Wt2+2TsRf9JpzCBsr1gQEtaZAmAPjVNg2K0r4GNWRQg6HnINMuYOyo7Nzuk6/D43NX2FBNrnfUSqknfISDC3sf9Q95rdVSU8ec1i4Z8+OWJZu5b1XjVPP0PmpaKanE+64OlpF7B4iR9+hcbV0mAxAQvdHkszkVcQKK1w08CJcC+nivxxGnJBrBh/hdbQlo8vUdPZ03ASxu1PSEDOsnv4ZgqGXkVbgIGzi5ZpLEsvgUyyOXU+/jWHWMOPfj/BLocdhK/q8V2FQOfePY0IRVE9P02WyUZGPvT8Pkl8b1VCxxM/6FT8tnxocyiVxp0uDXxnHYSfZd7ptzcFdpF5NAap1MrzAGAr+JtQ/D71lim+455pVDm/DaDZr2fe5Xspn537Bn4+303sy1IQyr5sEB3Hh/kPU5mTg/ZrnTJAP3BA3W5SnaERgIgXdiU7ljYWPguyG4ZJu34Pu02VrK61HZWTpPLE/ubuBuxzqCvj36e7JJNtdmmMkAxW3+/+AX+1CcjiBO9smHOX3eMedk6xa28icN+ePzpW0ek517Aia5W8oIy9/D25K6ZJOsLeGlRVkmAzveJLVwcKs2KE4Up1Ys5e2QLbKVM7HGZ3JH7tbg7JY+yCbZvIWbe+owGWAywCcDZKCKgXuEZq4uAx8D3xwfve6RO3LXi6172yWbZPNehpbWZzLAjWDVRpDiRHFaKi615ckW2aplpWU5ckfuWvLUsi2ySTZb8lTT1uXPv74M7sfBxx/agAyQATJABsgAGSADZIAMnIeBy//z//5/PhkY+I8WmLHA33//PXOXt2iB2y1Atm63HWvebgFyd7vtWLOvBchmX/uy9bEFmAyMbcIrBQtQnApG4aUmFiBbTczIRhZagNwtNBiLr2YBsrmaqdmRWIDJAFGosgDFqcpMLHSDBcjWDUZjlbstQO7uNiEb6GQBstnJsGx20gJMBiZNwxtoAYoTWoPvW1qAbLW0JtuqtQC5q7UUy61tAbK5tsXZH5MBMlBlAYpTlZlY6AYLkK0bjMYqd1uA3N1tQjbQyQJks5Nh2eykBZgMTJqGN9ACFCe0Bt+3tADZamlNtlVrAXJXaymWW9sCZHNti7M/JgNkoMoCFKcqM7HQDRYgWzcYjVXutgC5u9uEbKCTBchmJ8Oy2UkLMBmYNA1voAUoTmgNvm9pAbLV0ppsq9YC5K7WUiy3tgXI5toWZ39MBshAlQUoTlVmYqEbLEC2bjAaq9xtAXJ3twnZQCcLkM1OhmWzkxZgMjBpGt5AC1Cc0Bp839ICZKulNdlWrQXIXa2lWG5tC5DNtS3O/pgMkIEqC1CcqszEQjdYgGzdYDRWudsC5O5uE7KBThYgm50My2YnLcBkYNI0vIEWoDihNfi+pQXIVktrsq1aC5C7Wkux3NoWIJtrW5z9MRkgA1UWoDhVmYmFbrAA2brBaKxytwXI3d0mZAOdLEA2OxmWzU5agMnApGl4Ay1AcUJr8H1LC5CtltZkW7UWIHe1lmK5tS1ANte2OPtjMkAGqixAcaoyEwvdYAGydYPRWOVuC5C7u03IBjpZgGx2MiybnbQAk4FJ0/AGWoDihNbg+5YWIFstrcm2ai1A7motxXJrW4Bsrm1x9sdkgAxUWYDiVGUmFrrBAmTrBqOxyt0WIHd3m5ANdLIA2exkWDY7aQEmA5Om4Q20AMUJrcH3LS1Atlpak23VWoDc1VqK5da2ANlc2+Ls7/LnX18G9+Pg4w9tQAbIABkgA2SADJABMkAGzsPAxeVDLhngP1pgzgJOFPiPFuhhAbLVw6ps85oFyN01C/H+VhYgm1tZ/rz9Mhk4r+8XzZzitMhcLLzAAmRrgbFYtJkFyF0zU7KhxhYgm40NyuauWoDJwFUTsYCzAMWJHPSyANnqZVm2O2cBcjdnHd7b0gJkc0vrn7NvJgPn9PviWVOcFpuMFSotQLYqDcViTS1A7pqak401tADZbGhMNlVlASYDVWZiIYoTGehlAbLVy7Jsd84C5G7OOry3pQXI5pbWP2ffTAbO6ffFs6Y4LTYZK1RagGxVGorFmlqA3DU1JxtraAGy2dCYbKrKAkwGqszEQhQnMtDLAmSrl2XZ7pwFyN2cdXhvSwuQzS2tf86+mQyc0++LZ01xWmwyVqi0ANmqNBSLNbUAuWtqTjbW0AJks6Ex2VSVBZgMVJmJhShOZKCXBchWL8uy3TkLkLs56/DelhYgm1ta/5x9Mxk4p98Xz5ritNhkrFBpAbJVaSgWa2oBctfUnGysoQXIZkNjsqkqCzAZqDITC1GcyEAvC5CtXpZlu3MWIHdz1uG9LS1ANre0/jn7ZjJwTr8vnjXFabHJWKHSAmSr0lAs1tQC5K6pOdlYQwuQzYbGZFNVFmAyUGUmFqI4kYFeFiBbvSzLducsQO7mrMN7W1qAbG5p/XP2zWTgnH5fPGuK02KTsUKlBchWpaFYrKkFyF1Tc7KxhhYgmw2NyaaqLMBkoMpMLERxIgO9LEC2elmW7c5ZgNzNWYf3trQA2dzS+ufsm8nAOf2+eNYUp8UmY4VKC5CtSkOxWFMLkLum5mRjDS1ANhsak01VWYDJQJWZWIjiRAZ6WYBs9bIs252zALmbsw7vbWkBsrml9c/ZN5OBc/p98awpTotNxgqVFiBblYZisaYWIHdNzcnGGlqAbDY0JpuqssDlz7++DO7n+fmZP7QBGSADZIAMkAEyQAY2ZsAlBPyhDdZiID4ZeP/+/cAf2mCKAZcsTt3jdXJzDwNki/zcw8+tdckdubuVnd71HJv8RwusaQEmA0yCqjb5DJwMnL0CINkiW73YmmuX3JG7OT62vMdkYM1tMPtyFmAywGSAyQAZqGKgV3Dkpoybsl5szbVL7sjdHB9b3mMywA362hZgMsCNYNVGkIGTgbNXcCRbZKsXW3PtkjtyN8fHlveYDKy9FWZ/TAaYDDAZIANVDPQKjtyUcVPWi625dskduZvjY8t7TAa4OV/bAkwGuBGs2ggycDJw9gqOZIts9WJrrl1yR+7m+NjyHpOBtbfC7O/AycAPw9tvLsPl8mp4++/1ovbD21fD6+9dean/7XdVm+GlwuD6iWP797fDq4sbK/x883b44UCJyKEC5/evg60X+fa74bX6xNdfxtUSPr77NuNWxhu4rGd5SZ97LrtPtvatL+9LmnK5iLa9HzxjynNBZ27RwaBpr4fvCu0lvpzdrpXZB+P75O79EH07479kb7Ul6Jew0UtPbtcvGGMvjcW543vH7Pevh1dvf+gS78f+UL/c9spkgJvztS1w3GQAgmH1AjfisH4ykMS5b9+thcm1t9vAWdiYhGDlNtz1mxKzeeoVqGSscXwa7JkM7C9A71xfdMOYNEUSgBrmb9TBmmSgpkwPfbqlzb1qWrBhdmBQ0Dmcs9Ev49/bNqPYdv7+Vv0yY7wyn7zP6s+Tc/9ueH25MBlYe4fJ/g5jgcMmA0GQXg+v3SmrbqqcwJiNlWy6/f0gBno6/+rt/x6eLHzzKp3aF9oJ5fWUWNuTOlg+E7cg6FKvIFDmfla3WvhWrLfXwDmyldj61bevvV/TZkl9J09kgJMUfCWBkGTglX/y5K6lE9f373OO5KRJ2nv1jXsihOXHwTgGUy0HY3HzwfuRbRnT629D+/6p01t5AmKCHI5PuR2PYWS3FVnK+94jW5P6ov6Xp05pHaPd3aajr75MJgOiSX78/r1yr5r1Pw7/AzyhvDbOxOKrIbAnCbasM9VTv86EY6OZplx9cp4z0uPzHrmL+vLt69HmNbHm1rPw9u13w0i/VANFi5w/0oGZ8KAMxKen0p7Gw3h9rB2JCdG5TL80BiMHozGKnulT/dF9r0cyVrGFbw9iLo4j6qTM3fMY32dz/i//xWp0NpYerC1t07HJf7TAmhY4aDKQhDAID2x6jDBpIJQNYBQHJ3AqEBKgsJ6KqTxSDKLjymV1ZjZQRrhNvyKu2N9MO0tFpFf5fQbOcaBKdhdfxaCWsZDZ3/tYA43cCwEU6+H7LPE0dcbjQr+Evl4Pr12y4frEsfj3dsOFG60wJg3cgeucTw38wRb72oChHfT9/tia0RfYhLnxJ97S1ztCAiqs6Ek9+riBvmgyEDZcIWGNX0vUhBKTAR2H0xqjRzPjxDEb7Qt1lDNcO5a5YMdgj+tfXVIe1nrdH3dWU9CuI9YyDk1Z8e9FtC/pgx40WH0pacqcD0JfE/ol4zJrAMdhNFbidomzErtYzr+38/B9Itv4XsYV5irMl8a1k1jMZGDNbTD7chY4ZjLghUATAAjcbiGjYGgAUwEy4mAFAQOkDWgYPKWOtjcjHNObBCYDc4HmvnvWp8YHOQuGk2yjYviCe4Yf50foL2tvbh4xcEud8dMEYVpO73yQM2OyzEdeZXxTG8S5MW15b3ebshlb44mss5lhzPABbGQb8Ogv1Y9Yr15fUK/UdziWyJgyipoV+8sYvjLOfNzhsyQi0r4pI3xbHveTnO6OO5PE5bEsY60iGdAkLPkk6IYmcY6bxInVFGWq9BrrTOqXJh3CRmnTDWsstqfrId6bXkNhXAWdRLbxvUkGxJae2bFNSnNe+xqTAW7Q17bAIZMBLx76mDO+SpARgTInExoIjThMC00ST9m4x3r1wTq0IQlLrC/tOdGLggfXVAx3+LrHwDkSaLGz3XzoI/LMd4YTDIpj38RgNfIjMJS1Nxob+DS2pxs12PQHbuTxO/ZneLGBO/Iq5THYz41jL/f2xtasvmSbsOl1Dmw434Mvo7+UiXgvY1Tvl15jHdAPYHDEmGpgNhaT0Gb38nGmz8KftJn60g1rSYthnKX5bHBtb9zFRDPGNLuZNqxlHKIPkDW3xnO/oT6kelZT5rQh1RFeQb+07/BUwq6BVM9qrLnuOIhaZ+tr2y62hzkVdBLXBb7PkoHQ1qvhrf+qpR4s7odRJgNrb4XZ3/GSAVngKGjmaYC5b4MWislcENRy2ocXK/+YvT5YG+E2ouQEJxO5DQLhnNiX7u0vcI6FO/lJ71l/4X0TTMwJGQaj0E4KVrY9wx1sxEr2w2upvbRJdAmMC3I4xnH7GrRs4E7B3o7P9LNjxnbFltEP4cj4tmBj/R/NzDqXcnIqqpriDymyPpLPbdvIzOi96SuMEzUn+b7Qpqk7M87SvJ0OmvHb9hOLbkzIadbPDnjcFXdx065rHLRHv+KF/hAfmK8CacJn/Ksb55CgJdaS9oQ4h74S7id8lNhKbah+Gc0y/p85cMF5aWz0c8mYgXmZeWB9KGPWXJ4MaD8ukVG7Tcx3tPZWKMdkgJvztS1wuGQAA15apChkIiB+kcP3Gv0ClnL+F6rkF/xKwdqVFYEJp8wq0Dbwpf7H4mnGqcKNJz47FKC5+ewtcI7Higwkfxg/gE9ffxt++TY8QdKA6U7iXg/f+XLq8yyIaYATX2rCqLxoe+PxpTGZYKqJiP4yMbIiv8zn+zBjsnM1GzCsr5vUFYLX3Hyv3dsTW4aXaLeSvR0r+ku1ysp6+qIbnfwpmPKXGCtpVv04w6YL54qbynByHb7mZp8GxN9fgDW35H/3usZMi/t74i4eEOVxQewX/Jr8dtFfqpX4FbgV/cINcUwyxD+4CXYapvFPdS1+TnqV2zqxFcooI2GMEH8vrwb/nzDInMwYjZ6h/soc/NqTtnRMOC/UOdTJQpnRuDKbRQ2P63167rkten1mMrD2Vpj9HS4Z6LX42O68AO4rcM6Plb48ln3I1rH89Sjri9ydmztziLKjRMCtLyYD3JyvbQEmA/eIgDn1Cqdk9knC44gtA+cSX+LpGHKBJ3FL2nvssmRrwr8n0pctEgxyN8Fd/vQAn2jrKf09cXPzuukJyx6fCjAZWHsbzP6cBZgMbC5MU4K8r+sMnPvyxxabp159ki2y1YutuXbJHbmb42PLe45N/qMF1rQAkwEmA1V//ZWBk4GzV3AkW2SrF1tz7ZI7cjfHx5b3mAysuQ1mX84Clz//+jK4n19//ZU/tAEZIANkgAyQATJABjZm4O+//x74QxusxUB8MvD58+eBP7TBFAMuWZy6x+vk5h4GyBb5uYefW+uSO3J3Kzu96zk2+Y8WWNMCTAaYBFVt8hk4GTh7BUCyRbZ6sTXXLrkjd3N8bHmPycCa22D25SzAZIDJAJMBMlDFQK/gyE0ZN2W92Jprl9yRuzk+trzHZIAb9LUtwGSAG8GqjSADJwNnr+BItshWL7bm2iV35G6Ojy3vMRlYeyvM/pgMMBlgMkAGqhjoFRy5KeOmrBdbc+2SO3I3x8eW95gMcHO+tgVOmQx8er4Mlzcfh990E/jrx+Ep/mGVl+FT8TrUMeWfho+/Pr6oHiFwer9GP4Y/9vXyi/PNb8PHN5fh8vxpvOkVX/pyU++Vh5pXw8ZlCP234eO3n56GywX4rBnPAcrsm61Pw4tjqsTOzmxr+JfxBmayP3xXMxdcCzJPbP/pp9+ytSRrTHT15n5XtOm+uWujGUs2tOjf8MczIeaN/JJr6qfhRWPqLy/D5XIlLtaUGfW5vk2W2K9lWSYDa2+F2d/pkoEoeCpculH0nzOBKwqWDXq+vdjW44rVEQJn7ovga7d5zvw6FWQKG6ClAo9jSP234YLJQBs7LvPpQZIBr1WSfArH+YY98HNlk+bWBiS0MZlFLfT3bTtx81/Qwup+p9Zlp+tH0LRlrN63PlC7fL8THJXGNKp7zWfI07WyJ7zPZICb87UtcKpkIGzOnoYnd0pcCFqfP9vAX958MRkoBYM9XBsFpBhw1GdP6QmQ+l8C3uyTAd1oPbsTL3zikAdf7QeeOkkgsxsiy9lnad+1/fT84seom7DArOvzaXh5xicD0oYfT9qYBRu8DC+OcX9v/08S9r0py3wFG2VnX+OnNyW72/qWA+FFmNKnD1rG69Tl9fC//k+oV1Jn9nQ/9GmTgdK1nF9IBN6EtaLzs1qYtSXJQVlXs7I72tjtm7uCbzrbbqSfqI2iUU9vnAY57hOHgQ3Qm6i7bg7B/0GLLkNkUsoExuc0dX077CGWMRlYeyvM/k6WDIRN00j0vMgmcVMxSBuxXKwgiOumsrNQ65i2ej1C4Mz9GvwHTwb0KzYS2GYTgEIgtJu1iU22tI0bRecz3eCFr5RJgPQbOnyv5WSTiePUpxt+DoE/Day4UQtzluRA5qDltmLnWr/7Zgv9Y+2OvE3bHeurf4N/vN9UP2Rz5PjQzZVuxEOyaH0a7xV0J4wlJSqJvwlmsQ3HjOMS+Xf3YXx6L6yHZBO0h/oc2dRre3ndN3frb4KVG924+1dNOkWLkpZIDJT7xvfASvA/8J5pcGhP2tK1gDye9D2TAW7O17bAqZIBDUJGuDKxCYIIG0gRuyRqMyKYtaX9PcLrEQJnKZiFTZP1mW5mliYDcQMmgTF+Hvld+oOT+cQPnJaVNl2wCcs3UvGzlDFBW76ja9kOG9EUwNffYNSwv2+27GbezSf4QU5CZQMzbXdb33IAJ/HwhGdURk5XHW+RgRFzwbdxbGZjZcdQ4xOzRqSvtL7k6erzpzCeog0yzifGWzWWTnX3zd36a9UynPlvpHlWU01dSAbwqac5IMEynz8Ppn4nf2/J2tK+mQysvRVmf0wGMuEZB2IR5ShedoM1WT5rd6kY7K38EQLndECxgctsdGDzPXk9D4T55ylfQznLCWzOsH/XDnwOddJpbvwsZUqbfGsDy+remNLx7Jst8JV+5aGw+Z22O9bXzXw4KfV19Bcto77YMmojX/b54/QvwpskJTHj6wNT2t7V19k6ytV/C+PRrznpqyYis22sv9nN57xv7ta3j2XY9S+66fwJWhbsaDXV1AWWTVnhwx+iZGVM/Sk9PdF1JgPcnK9tASYDGuBHjztLQXz8xMCLmD76fGCxOkLgnA4oNnDhhrvqvQTC618TKjEjX+/AYCqbpNBeqU7d14T0915w3vhev69bShryjdGWn3fHFvpK9MHbUPwW7AkbpdHJpm6W3f+4UyjnEwB7HZNFfB/9ogzC7ynEe5BElv63qWJ71zbq+X20iX8vXIPmWfbKSY0ZM9Td4vruuNvYHrn/VD+8TqH//Titppq6wEc8wHB1kCko43xv6m9shy1YzPtkMrD2Vpj9MRkAkQpfu4BTNRGvcB2C39T1BxaxIwTO6YBiA5cJShigpt5rILz6C8T63Wr9ZTr4hTlNOt3p2POL/e8qpX3HWfUvEE8waG2Am9L1TxrzADf1eY9seTvqSbccFLjx4/Xwy5RBL+bsHjZEjgn9JXCbIHp9gV/YLW7eIz+gT6A3qY8xe2ZDpnWQdb2Gr4X7OPfSV+SsDTQZKI93ioU1r++RuzXnn/eF/g0xD35xXTXQ/1fN8NTAfI3WsfcyfDIbfdHefC2ZMkwGcl8wGeDmfG0LnDIZyBceP1/fKJ46cI4C4XV71TNlnwyYRAU3Zw/8/tRsVfu1fWLnkoTSpr6e3ZbrYP22yN36Nj8LW/fOk8nA2lth9sdkoDoYn1s4Tx04uyYDeoKaTnT160j3BpSj1D81WxX6k079G56yu5N/eOJxFFZajpPcnTumtWSpdVtMBrg5X9sCTAYqgnHrhX7E9hg4GTh7cUu2yFYvtubaJXfkbo6PLe8xGVh7K8z+mAwwGRhqRI+Bk4GzhpNbypAtsnULN/fWIXfk7l6GetVnMsDN+doWYDLAZIDJABmoYqBn4OvVNtvlhm+KASYDZGOKja2vMxlYeyvM/i5//vVlcD8OPv7QBmSADJABMkAGyAAZ2JaBv//+e+APbbAWA3wywFPhqlNhFxi2Pi1h/495kke2HtOve1+v5I7c7ZVRxyb/0QJrWoDJAJOBqk0+AycDZ6/ASbbIVi+25told+Rujo8t7zEZWHMbzL6cBZgMMBlgMkAGqhjoFRy5KeOmrBdbc+2SO3I3x8eW95gMcIO+tgWYDHAjWLURZOBk4OwVHMkW2erF1ly75I7czfGx5T0mA2tvhdkfkwEmA0wGyEAVA72CIzdl3JT1YmuuXXJH7ub42PIekwFuzte2AJMBbgSrNoIMnAycvYIj2SJbvdiaa5fckbs5Pra8x2Rg7a0w+ztlMvDp+TJc3nwcftNE4NePw9PlMlz8z8vwqXgd6kyV13oP+HrYwCm+evlFA9+n4cX7+Wn4+Ovn4fMvL8PlIu9v9NtvPz0JO4Ghp59+q0qwaoJNaPu+8dX0s2WZ3bLl2VBdgPV/jZNfXobrDAiHz5+aseJ1TXUM2jXXL5chrQVdE4XX0br5PGA7OD+8fpnqF65vyRr2vVvurvHV8P6kdhX8H23XQDNjWw3n8khtMhng5nxtC5wuGYiBKyYDvw0f32igl/cauIqiZ8v49rT8AwvbYQOnCWriuzs3/xh0Rpt16Q83S1h+6ftR+w/I2C7ZkkQgbZxRJwqb5+iXsMm/7v/GyQCO1zBo9aqKP6nvDkfi/FEL/X1MpqWc1PN1JsczZ7t17+2Su8hRf1uMtAW5QV+uOKYqPk8wHiYDa2+F2d+pkoGQCDwNT3HznwuuDdBBLOFJgRchG+zLZfJ2j//5sIETgpomgnGD4/wJmxz15Yt7ciRPiT7Cqb+pV2ChFMi0T9+eJqCyUXp6E54ovPyiG7YXeWqhyennQQP2y7M+fShswrJ5lMax52v7Y2ti4w8sOXsG3wgr3rdSz5zOl645PVCtAZ/DoQJyo4mFsuD1azahRY3C9xU6JHO8vHnyT0uVeV0b4akptFnY9GudxByU9+umYhwrlNsfd2va5YpPhAPVKKdfyiFqpr5P+gQJpLIkWqpP3M26uUB8nSifOFrTPtv2xWSAm/O1LXCyZCBspHyg1Y1ZDDq6IUuP7TEgp1MyWy6UeeyvcTgxPmzgzIMabLh8kBklA/aUM3ztQXyeMyNtjzc/Ekh82xLssKwmA/HrRLphlLKwwdLAqYE4sVvgMB9fZHvbwHYtmO+PramNElwHH+nGPvgIynzWr9ZYBrDcRTdDwIf3ufoyv46n9RP+Vd3yXEr9kNymJHPSJ668WyPQb75O9F78SpDYImmk5c2MZ2LMk+PpWH5/3Fm7dbVJ7t/czsqN6GXwIeqTPZQITKNOhnWg2ph0K1wP7OBamSq/ok1yG2z4mcnA2lth9neqZEDFBgYMWgAAIABJREFUNQnTWGiS6NnNVtiUiQCqULrTEn+6y2RAbbu7V/CVbog0QPmx+o1M8F/wcWnjJps63aBpkLgWUH05CX5yWuz7NhtJx6BlTTdbrqzhLp5Gw3j9mDCojpnenU/UfvK6v03ZlD3TdcOKmU8qY5OE4JekPaFc3FDHJwX/DF9b1KcL8uo2WzkLJb+GMrDpB751PKnPGVYKbAdtdE9C5Omq2yhi+4U6o/EYW830v0K5/XG3oj0KvjI8ZfcN7+hzfK/Jr9Mkf12fsOqr01bROuVbNXWy/Io2WYE5Y+OZ/pgMcHO+tgWYDGQLcjLgZqKni9qIZNaWlnmE18MGTglqeBIVT2Odv8CvxpdSL5x4TSQDsoHTMrmfQ3v2SUPLZCAkDU/Dx5/u/yXofOxrft4fW3jCCZsR2CAZVsy6b5QM6CYJ2g59Th88KG+Gb6g/SjrNPZinuw5zHbOQ5mjtYBOc6+PJ+pwbT4d7++NuTXskH479O/a/8TNoJuqnaycmu7K5Nwcv6EO57w9oIHmYLI91T/CeycDaW2H2x2QgnsiFrwdFMcuuJzHEjUJ2ovvAInXYwJlvajQI6deFILAlH6dgqBv9xIUN2KEObNAgiQgnqfhoXRKDUaDMOIIxh/bT93XtOKSeO2UrbB6LQX6HjO6SLfGR+j9upNXOxofoP7vJMgwAG/GUfuprQvo7ASM+gTX0pbSdJwKWTxgbMFbkJL+P84Uxmc0gzm9iPMW+cB4rvt8ldyvO37KRaV7m/1AWtUw4RBYwGTDx88r68GsKE0ksb/V2T/z0HAuTAW7O17YAkwEnvjFwuceZInij6xCEsbxuDlYU8Z4iNNX2YQNnFtTc/MIGDTfmwbcm4Ek93QzaTbgNUKGePgpPG3fDlfxCpm8PN1aemyz4wZg1YKdf0AMO49eGoM8DcrhbtsRP+vWyPOEyfo86IL50CZpPOOFzvOb40c1P6ReIbR1lUFnw/yVu5mczFvkKhtZT3v08NAkGxoprvnAf28ETXLyuX0GaG0+xv2w+a5TZLXcr2iL3kzKj2qV+DuWWJAP61FV1EeKqWVegZ+Y6lF/RHmtwV9MHk4G1t8Ls75TJQM1iZBm74WXgtPbYCx8mSB80aJKtbdhy7Ohmby88rzkOcrcNd2v6+Kh9MRng5nxtCzAZOOgGam2RY+DcW+CUk2X8L/8OyjLZ2oAtd/KvTwkOys29GkjuNuDupKwtZZXJwNpbYfbHZIDiVPUXUBk4GTiXBrTa8mSLbNWy0rIcuSN3LXlq2RaTAW7O17YAkwEmA0wGyEAVAy2DHbbFTRk3ZcjDWu/JHblbi7Wl/TAZWHsrzP4uf/71ZXA/Dj7+0AZkgAyQATJABsgAGdiWgb///nvgD22wFgN8MsBT4apTYRcYlp5usDxP3moYIFvkpIaT1mXIHblrzVSr9hyb/EcLrGkBJgNMBqo2+QycDJytAl3eDtkiWzkTa3wmd+RuDc5u6YPJwJrbYPblLMBkgMkAkwEyUMXALUGtpg43ZdyU1XDSugy5I3etmWrVHpMBbtDXtgCTAW4EqzaCDJwMnK0CXd4O2SJbORNrfCZ35G4Nzm7pg8nA2lth9sdkgMkAkwEyUMXALUGtpg43ZdyU1XDSugy5I3etmWrVHpMBbs7XtgCTAW4EqzaCDJwMnK0CXd4O2SJbORNrfCZ35G4Nzm7pg8nA2lth9nfKZODT82W4vPk4/KaJgPtrnJfLcPE/L8Mnvf75t+HjG71+GV5+UfFMf/31csHyev/xXh82cP7yIn4XP8e/yiq+j58fz6e3BKkedbZlC9eyrvWt1rQwh9oUtege/jKWjd4tmXPWjhsbrh8cN15Hjcz7xjpN5lpvp225qx9njzVn2hSfjOPb0/Dx1x2Nc2U+jI1W7pvJADfna1vgdMmATwTcpj8GIQzANthh0hDqhU1Cum7Lbykevft+yMApG5ZREPQJwHl825uda+1vy1ZIBp5++i0+IUvre+2NEGpRq76lTad5pcRWNoI4/7K/Su2g7cL90I4kWKV15NfcPjaZ23LXyr8N2jHJgPp5Hz4qs9hgzitv7pfOg8nA2lth9neqZCBs6J+GJ3faH5MBFBYMYhjoxmU0eP7209NwhqcDjxc4JeiVNkg+UMj9N0/pqZEwE3yuwRKZ+Tx8xpPP55fh5XIZlBVzinrR+nq6+jS8PDuWwkltTFDghPXp+cWPJd7beUCrDYDbslVY51mSGPydPzn6PJjroCfmuvIlm+Dk46fh40/pqVRgRJl7GV70iSS0a9iKp+3Cn3Kq/SHDF9E8cy9oWl3ikzaIXju1HbOJ/DyktnBN2HUWbLPVkxfU8c/+j2zWMvrQ5cCPIUbiU3BnM/V/tgZknTy9CbrldQn1LzKqGqdPoVT7lI2gk177kPcH0bdb2GEywM352hY4WTIQRCgFLQwOKkyf5IRQNgkidE6owibMbh72FNxuEZ3aOttu2NBPrd5bP47toAFQNi6wQQw+14BW2PhoQNNg6U6dJUhqYhCCrm3bbgjd19iw7bT5ZDLQigHXToED9JX3oW5eoSzwYNq4Uj74WPwqnCQWlDnLFtZR3ycNs21Zjl17buy5ton9YBNo6+X2nWoH7KF9xA2gjCt7IhHmqptC1dS8v3U+P56m3Wg35V1jnSZ7shlPfKbDDs8k6psvG3w+xWi4jizKe2XGrKkb5/IgCQSTgbW3wuzvVMmABrwUSMeCk4RPgpkIY349BGjdoOlmYdye9nn018cLnLiRKfkNg1YKgi6gTScDeZvp8yhpxI2YD4K6AYQTVizjglz++YEC33brI/kojkE3Rz/9Fk675WmNPrVxX7cZ+VN8EXQibXZ9HachxsehT/3aTmpLmNNkUjfY7rNslOIY/Jic7ti24hwMGxnLZqxLtKvQDowrnBCnMQWNxDr4Pl9HpTXY99rjadqN9hLekS3d0JtEF7kBJmNZYCG1lfgya8PHVcvDo+pbeU3O+4rJADfna1uAyYAJmhigsk1CDOb2egrk84v7FkHYU53HC5xZIMo4iI/G9ZQMNuLB57p5x82YZQMD6YgTaM9uFJkMrMt97jObdKVDALu+R/7EjZKedCJTUT9cO8iMao7bNAmTM8lA3HjFtm1bZduVWC9ds3MctzVfx9vKjR3Z/iw8X7XJtb7b3388TbvRRpoMeK0TnqK/xusj+lk2/5HJ/LMyatpHhvC9XXdj9m6cm47hYK9MBtbeCrM/JgNZYI5Cp0FMAjMG/1QmE7ODCc4SwX3IwDkKXrixynyLGxysVwp0upmTcv6EVMrpEyXPkAZcX06TC0gGMjYDg9t+tWIJM7Vlt2VrZrPj1nPB137zg9d1Ex+fAIiPRsyoj5GzQjIQf58Ex4Z1kE28PrVhwvJSJuMx+KpQzmhafh/7Ho/VPBnwawLL47ynxt33+rbc9Z1b7drz5ZBTYF6fXBmtQm7MGnDzQf8CK6bcRBnXbz4Ow96O7LXCuJgMcHO+tgWYDIAIhUeb6bFmPB32j+Q1kIPoxUf1jy9UDxs4JVDFx9r6JAA3eMBIOAWTgOb8L78krIFTA5pvb+EvEOt/45eSzbQZde3xF4h7rDPwpV/P7is+qAF6si1f/Yl86GZWrmsCqIcI2paW95yphuCGSNvBJwMTv0BsWNUx2rbKm0DYmOlGprjxKpTT8v61cB/HpHN1ZfE62lP6DetN7dHDr9fbfFhNMz67bgfVrHjCDwyHa+L3ItPZ4UTR71gf/wOPjKcikxXjXzrfA5RnMrD2Vpj9nTIZKAfMc4pOrS0YOGv4kOAWN4Zho6ZPA2ptncplG70HDZZkq4atlco4xnBTf4CNU1ovy2xE7pbZ61Y7s95yOzMZ4OZ8bQswGXjgYNdShBk4KwXdnIxN/Re2lW191lNj+IXUB9yoka16Hlqu6XFbLpnVJw57GVO/cZC7frYds8W+ltiEycDaW2H2x2SAyUD8Y0tzYsXAyWA2x8c998gW2bqHn1vrkjtydys7vesxGeDmfG0LMBlgMsBkgAxUMdArAHJTxk1ZL7bm2iV35G6Ojy3vMRlYeyvM/i5//vVlcD8OPv7QBmSADJABMkAGyAAZ2JaBv//+e+APbbAWA/HJAPMiWmDOAg5I/qMFeliAbPWwKtu8ZgFyd81CvL+VBcjmVpY/b79MBs7r+0UzpzgtMhcLL7AA2VpgLBZtZgFy18yUbKixBchmY4OyuasWYDJw1UQs4CxAcSIHvSxAtnpZlu3OWYDczVmH97a0ANnc0vrn7JvJwDn9vnjWFKfFJmOFSguQrUpDsVhTC5C7puZkYw0tQDYbGpNNVVmAyUCVmViI4kQGelmAbPWyLNudswC5m7MO721pAbK5pfXP2TeTgXP6ffGsKU6LTcYKlRYgW5WGYrGmFiB3Tc3JxhpagGw2NCabqrIAk4EqM7EQxYkM9LIA2eplWbY7ZwFyN2cd3tvSAmRzS+ufs28mA+f0++JZU5wWm4wVKi1AtioNxWJNLUDumpqTjTW0ANlsaEw2VWUBJgNVZmIhihMZ6GUBstXLsmx3zgLkbs46vLelBcjmltY/Z99MBs7p98WzpjgtNhkrVFqAbFUaisWaWoDcNTUnG2toAbLZ0JhsqsoCTAaqzMRCFCcy0MsCZKuXZdnunAXI3Zx1eG9LC5DNLa1/zr6ZDJzT74tnTXFabDJWqLQA2ao0FIs1tQC5a2pONtbQAmSzoTHZVJUFmAxUmYmFKE5koJcFyFYvy7LdOQuQuznr8N6WFiCbW1r/nH0zGTin3xfPmuK02GSsUGkBslVpKBZragFy19ScbKyhBchmQ2OyqSoLMBmoMhMLUZzIQC8LkK1elmW7cxYgd3PW4b0tLUA2t7T+OftmMnBOvy+eNcVpsclYodICZKvSUCzW1ALkrqk52VhDC5DNhsZkU1UWYDJQZSYWojiRgV4WIFu9LMt25yxA7uasw3tbWoBsbmn9c/bNZOCcfl88a4rTYpOxQqUFyFaloVisqQXIXVNzsrGGFiCbDY3JpqoscPnzry+D+3Hw8Yc2IANkgAyQATJABsgAGSAD52GATwaqciYWcqLAf7RADwuQrR5WZZvXLEDurlmI97eyANncyvLn7ZfJwHl9v2jmFKdF5mLhBRYgWwuMxaLNLEDumpmSDTW2ANlsbFA2d9UCTAaumogFnAUoTuSglwXIVi/Lst05C5C7Oevw3pYWIJtbWv+cfTMZOKffF8+a4rTYZKxQaQGyVWkoFmtqAXLX1JxsrKEFyGZDY7KpKgswGagyEwtRnMhALwuQrV6WZbtzFiB3c9bhvS0tQDa3tP45+2YycE6/L541xWmxyVih0gJkq9JQLNbUAuSuqTnZWEMLkM2GxmRTVRZgMlBlJhaiOJGBXhYgW70sy3bnLEDu5qzDe1tagGxuaf1z9s1k4Jx+XzxritNik7FCpQXIVqWhWKypBchdU3OysYYWIJsNjcmmqizAZKDKTCxEcSIDvSxAtnpZlu3OWYDczVmH97a0ANnc0vrn7JvJwDn9vnjWFKfFJmOFSguQrUpDsVhTC5C7puZkYw0tQDYbGpNNVVmAyUCVmViI4kQGelmAbPWyLNudswC5m7MO721pAbK5pfXP2TeTgXP6ffGsKU6LTcYKlRYgW5WGYrGmFiB3Tc3JxhpagGw2NCabqrIAk4EqM7EQxYkM9LIA2eplWbY7ZwFyN2cd3tvSAmRzS+ufs28mA+f0++JZU5wWm4wVKi1AtioNxWJNLUDumpqTjTW0ANlsaEw2VWUBJgNVZmIhihMZ6GUBstXLsmx3zgLkbs46vLelBcjmltY/Z99MBs7p98WzpjgtNhkrVFqAbFUaisWaWoDcNTUnG2toAbLZ0JhsqsoCTAaqzMRCFCcy0MsCZKuXZdnunAXI3Zx1eG9LC5DNLa1/zr6ZDJzT74tnTXFabDJWqLQA2ao0FIs1tQC5a2pONtbQAmSzoTHZVJUFLn/+9WVwP8/Pz/yhDcgAGSADZIAMkAEyQAbIwIkYiE8G3r9/P/CHNphiwCWLU/d4ndzcwwDZIj/38HNrXXJH7m5lp3c9skk2ezOWt89kgElQ1Saf4kRxysWj1WeyRbZasbSkHXJH7pbwsmZZskk21+TN9cVkgMkAkwEyUMVAL3Fi4GPg68XWXLvkjtzN8bHlPbJJNtfmj8kAN4JVG0GKE8WplziRLbLVi625dskduZvjY8t7ZJNsrs0fkwEmA0wGyEAVA73EiYGPga8XW3PtkjtyN8fHlvfIJtlcm7/9JgPfvx4ul4v/efX2h7hZ+eHtq3j99fftgPnuW9fX6+G7nhtDmVMY93fDa5mfztO94lzXhmGuv32I0w/D228CE9ZXYMtv3g4/tPKh8Vc71nI7B/YuA/K8Co+t7HRnO9uw9ZgsBbbSekCmcu7c56Cnr4a3/17geyX+S+Na41pX7laNX8JyS+0rrGmMvSlmpZi5L83SNZDG9/69XPv2u7ifWIOzW/roymbBt7VjRAZQWzSGXS4TWnJTn1tyfRkuLTkxWrrOvGp9quUOkQxcQOQSdHbzpBO69XUVITNAFIRJ7u8xIdiHOOEGDvz/72+HV5pYASu3shDrGX8VNks3Cdy4ncg0jH0VHhuNP9rrxva2YesxWfK+EG79hu1KQGMyMF6P9/I88sFoXYcDDdxM3dfnOpuLESuqu8LYvjRLkwE8YCvE3Bs16z5/XWduG028Pi5MBtJmGbX0qMlAy3Ffs+M663Upo7tPBl59454EaHYfFnO4BptBDH6xLJx6vcWnDN8VT5dVyF77JwRjsTaLYCTurwetNyvwZnNZFiYdR9cnFDcI4D7ESUXn1fDqmyTyGqTctZQ4atngy5Rgqd3fWg6AoVhW/fVt4icJoFvw0pYkItH3eb0rG7LgczvOnAMsk9ZDEpW3kdtXw9vvITkyfU+M9wYelgrNXPlt2FI+7mBJ/fzW2jv5CgKMlp1iSe6HE1fVu/fD+7ye8Wc56Cg7QZOgLfEzju/1t05f0zhR517LWJVr267o79S4378fUj+4LsfrJq63lTnsyp3Y5fb4tWRta9nXw+v45DT59P17Zd1qTLz+jdbDOmO2VGfxKZIy4eKVvtdYiFyF9W/1J/ldx/92SDqG3E6NfzzGpDPYl85LrhWTlzQG/2RZ113N2u7AbVc27xiv6oPnWvdBkhQG1tXWuv8KzI3i8jfo66mYpT5RPl1bqf3I7+gbJHk9rDNmpsR14kjbqhnv++G9Jsj5mJQn/22W1GazbzHc4VOd6/6TgW9f+1NfH5C8QV8Nb2Vz768piP6rRNbIEVy8d5Egpk4zwqAJhrSjiYVxZElQtN4YNDW0f51pR8vNg3ml/QZA6Djy132IU/KLDzhejOTat7K5F4HSwOSTqpLdM9+qWIV6Ih5STxMA5Slsjkqslevltsw/a58+mZFxjcafCW8Yk9pD+lWmpY3q8XbkJp9r6fM2bKntJJG/haWMj+AzTVJFJ9RvWVnjmxkN02RAGSzZz14DfTLci3bItbARUxtk/BQ1UTd7oHUV4x5rtLYTNntb6l1X7tTON8evCd/Mre24UbLsjbREY2BMEsT/V3Sg5CtsW/kP+ggc+nazz4bN8lw1WcA+dD2EPubiodrgVXhq7Jm2YzDtqi0m1qvOLYxJ2274ldTM9l3ZzPqy+jFn07TBDwcFgZvAxevhrf8Kt7Bk/It2L/taD7iMLqpPNuA62WT5eJXNwEzJHtKmsnaHP9I45/1WU27/ycBbOcn/9jv5fuvr4TsALRcoBdNtAvN7dvEjoDZAecNBH7aelBVH5vdmjQ5txlNlCbxaLx+zXt/6dR/ipAtTGXALLfjxlXLi/WJ9q7Y2Qq52NxuajBnjL7fYoN2snp4IeCEY1ZtfqJEhqefGGa+BUIRrctLix5+LCozP1cNxzI0X+tiCs23YasAS2nekN5lvsrLIUr7mUcOMD2v8ZPrJeIDTW33yiH3je8+BaWuskXn50rjdkw4NjspW4hhPf+fXiNZt+dqVO7Fd1KXF8SvjB7UnX9u6aYLNRfJNzkD4HLQw72PeB6lNKSeaoolq8KtsfvIxZSzFU10/ZliLnnEcM753/eL458ab6qVxpWuOo3BdGcxskY3Xzj0rW7MuF5bpyubCseCaC3Zwazr5wdvxm7fDd5AMWNvinim3nfWJ1bu8LMbnrJ7hYlwP55C/1zml34MJMTboVt5W1m/GiW9b14V/OsBk4P5f0IliKhsjfZTpNkHggACdbJDk0Yw+SrILOF/81qk5vKkPgSG2rX0FERnVm1toMG4VNRVSBTQfs17f+nUf4qS+eD18JwsunVDAojWLUf2lvxBk/a6b+BAcUWyyzbT3K9QVX+YC4tsxfp4LWOEeMhTeh6+u5KclgRUYQx5w5zYMc+OdY3aFe9uw1YClzM927QKPzoZZWVz/wefA6WQQWcaS0wxkq/QZx4zvvd5kYy63NTFuZRN0MyYFo/WpG7Lr82upg125E9vFxH5x/Mr4mVvbautSMvC/wVfYwBdBS/I+5u0f+Mj8DX1aPmzbI7bMmG1ZXBuqz7nO5nFzzAXqpLz/Bp8S5GsjG0PGvh1/VraDRnZl847xKgOvvxcbfPva/0cojvNkI7mHvPn3bp3ntkM/5TqZl4X43JxrTWLzNZCPYW68ck+eZCR7XJ/XmN98HP0/H+DJwA8xkDpByDdbxuAZ5Pk9K1bWqfaedd7oHvQzd2/kYCMwtn8tu6g9GIfW7/W6D3FSkQFRKYpM2bbBNtk92Zh4rvLTXeMvtxihblbP2H1Ub34hG5+bjRLMMwZdGMMSYZ0b74ocGTtJv9uw1YClzM9Wb7IgkpVFlmy9jJVRvew++s6wYzdtyndgLQU+7Du8h5P8rG/Dab5WcBzZe21Xk9vEgPpAE/WZuWVtpjZur9OVO7Edxqtl8SvjB7XH2cL4Ji8LmyZ5clrePI/rzdkVWSmVs3xkbZvxOp/hfXzv7qHG4fslvrb1EoOJtSXjtXPPx7tkXHVlu7J5x1pSO7rEXt87rtPnoC3Wtjjn3HbWT/vjesF4M8YNM+Ze3ibaZ7v3x0gGYpArPHIxmxxrZOOM0SmZhTDAq9/3lXay75WHk61SvcqTLQOEbceLq5nLdlCUhH4f4mT9oj4rnXIZMZqze2Zzw4zU098nUPELHMywZvq77kcz1sip28wFrvC+jqE0ZxtE5zcMZp53BIcSK0uvbcNWA5YyP1ubWj40yBVZMgyW6wXm5llSNmxZ0RlNJmXMITlQG4iuyjh046jrS9tDDsd6Zcc9bQtbTk9+NVlZys495btyh3ZWu+p3n5GbSd9ndjIb5Im1Hb+SZX1u/IZ9mw35PFvOztan4/Kmn1HbWbybHYcta9o19cZjSDzYNqI2usMj+YqomY/6KFsnyr4pO5rb3Dhuu9eVzTv0PthBDgzEFxqnjI2Mn9AXR+N6wXjNWpY5l9b8CvykdVDP3zGSATVecXOehDE8SkwbcwNn3GTpfQQ0PTKc+p8QdBH4PlQwRm1eMXxpgWSP0rYIijXg7EOcZGFmHJiNTfSNlg0npMmu1u/5ZsQwo/6C/wEmteN8rQs+9KGBQzd+8fMV8TXBzpfVdoVVDVSeFfkKkZ/nAqEy7WbjvTK+Gj7uKbMNW8qH2Fh8vYgl5UP+3olhRzVLedSyUyzJ/VzD6lnK5gM+DXzlTwMcA6+G/H8T0v78ad/E/yakv2/gfT417qiNgTX96mbgRPmWe2ojGPM9PNXW7cqd2MXwlOlW1IeiDZesbS2L/+uKxjmnU8pGsHfSMK1X94uwlu9xrLM6Vmrb+j3OX8cXOZBy+ntdel9iZRr/eAzJ93kbsE+I7cJ49GtcOgbxiY7Rzr00t7mxLL/Xlc071lmwgz49FPuJzayNNHnM13huu8xPxu5adg2uVafg1c9Lx6BrZG68uo+Udeb/J0ybOAWe8jaX85E4b1d3v8nAHcD2MNTZ29yrOJ3dL48wf7LVTtAfgYe15kDuyN1arC3th2ySzaXM3FueyUDLpMOc4EKG6U409MShZX8rtkVxul2cwolZxoOccunJ070L+cj1yVY9W2Sp3lbX1gS5y2x5qPglp6uio+GJmmpsegp2jYG93iebGZv37HXMkzdlRF7jU6KG/d0z1g3rMhnY0Ph7FaLSuChOFIsSFy2ukS2y1YKjpW2QO3K3lJm1ypNNsrkWa9oPkwEmA1X/DSzFieKkotH6lWyRrdZM1bRH7shdDSdblCGbZHNt7i5//vVlcD+//vorf2gDMkAGyAAZIANkgAyQATJwIgbik4HPnz8P/KENphhwyeLUPV4nN/cwQLbIzz383FqX3JG7W9npXY9sks3ejOXtMxlgElS1yac4UZxy8Wj1mWyRrVYsLWmH3JG7JbysWZZsks01eXN9MRlgMsBkgAxUMdBLnBj4GPh6sTXXLrkjd3N8bHmPbJLNtfljMsCNYNVGkOJEceolTmSLbPVia65dckfu5vjY8h7ZJJtr88dkgMkAkwEyUMVAL3Fi4GPg68XWXLvkjtzN8bHlPbJJNtfm75TJwKfny3B583H4TTeBv34cnuIfL3kaPv6agfjLy+D+qMnLL+76p+ElltU/YFGoo20/yOshxUn8+vTTb/ObXe9f8SG+r/bdb8PHN8rCZbg8f5rvr7rdjMMHrbcVW14HsrUc1vj+7W7GHrVMOFzI30gPH5SzPLhuxV0+jts/Yyx6GT6p30w8g+ufPw/ITWI906/LRDyTOOj/wJcyZ/pSDdQ+cXwTbX62fY+1WtqITNvyaQ52bkfX4LZs5jac0DfxpbcpvleuDvqKzIc/TjfF4oRdbp037iXw/a3tda53umQggqFipmIkn8N9FTMHRxI0FJ4g4JWLrLMTbw8m9fC3Faf6fu+amwjaOMBk/d+7ULG+f6+JY9bPA3Bwlz8m5r8VW36tRx34PHxGP06Mtcf8F7eJgbouEc8PAAAgAElEQVSW8Zn5jOwwU3bxWHfc1lbctbJh8hsmgfheNsi6kQa+f/vpabhcNM6FODavkxjrJsobFnEc8h7XmnARxoEHMVY7QzxOByxY3swBdRfXx475m+OgLZvou5mY9AB2MzaV+YwSQ8PpjD1asgNrz4yxZR93tnWqZCAIy9Pw5E5xC8LknGQERk9S3jz5Jwd5MpCX3auTW4yrrTittADNoreCiEHFbAKzRRuD0eUyTAVL01a2ILF+ZE76eHl2Admdpj0NH38KT5/cZ+wntD1x4iZcBrGTgKsn3boByMbTgoXWbWzFlveN0QHLSOBCba+nSVrmJT0hjLae9kHZj7phgrbMeCbWCW58jH+1PfdkSt+X2sZxvgwv+KRU2o5c+qekc23hiezTEJiWTaYGY2FS9TPY/WV4iU/TdFM6MV8zx3ZltuKuzfoJHKpWBL6cHaeui5+UL/HNTafARleTP8x6wvZr/ZfXEZ308Tqusaw/TWhwTeTt1Pa/o3Jt2VTNAl1QDqbsltnQ6Ff0BepIStgc39vHvTA2vz5kLj62vnEx92n4+Iv7NohoOty/PAe9DOtK1tLzS/zmyNNPH5Puqw1Va/PYK/z6b5rg+4wzY6toW92LavxRjSxo8fNH+GaClkvrpFZvTpYMBOcb0ULHKBTqZO/Al+FTtjCCca3o1hr8qOXaitNyUG+ym/gNF7aeEgRxwxOp8XtfRlkoMqDzELF1YgCLOWwmZXFifRFgMy7pJwiD1JFyYRMlIuDLSX86tii+tq/Qvo5xv69bsTXWgbGNje29b9XX1taunOEFxX/Sj9JfaUODujR6r/XyQw257sepZcYsGfb1ySdwNZ7zdFuaMJk6fj6hjjKItg6M20Cs5W5a5yP71LG+FXdt5mjjT/Cp8zUyoJuyQtwr6FFIADMNG9nW9hvngu25Ov6zHLz5TZL4e9Se+koZ03Khn5df7Hy0vzRfra9P9sLmKfAI9yb73WeZtmyKZqEuaOxAbUIf4ntfRnQEk02s69+L77D8qB097JIxyTiaxz03BtC0oC/Ckr8e3ke+MnuE8qUx4hzDU6x53cfyynZizmhxwVZGV2Hc+lQv1JenaVL/Vi09VTKgQoKBSa+Nvw6kYqTCZh9fGiceTGjSnBOU1661Faf6fq+Na/a+WRwoiJp1FxZqFDUNTpqZh9e5haYL0wXVFIykXzwdjX04O5TGFYR3xGmsZ+toGzi2Ud0dM7oVW2MbYbAIjPoy5sSnbPuYBApzeLI+6if6UfrTBBKDQY2/fDvIJbaH762G5eMpfjZznm4rMK8bBV1X+WdZQxJwbX/Bnsju7JqusUtlma24azM/azfjB2DwSU9Cf51+MlCqO+8P4UE3UPlhhLO/0d5x+dwGngnHnKwF/xk3r7pG0LfCv9fauKZS30mDV4o3OLY737dlEzUr8wXaEPUH3kffqCaon4Azf+pufjdP+pQ6Ix91jnv/zX0NzjHj55f0KOfq6ad/+pP+xDuuK3yvibW0BfbxLBtbzO0rLIt+PLCOdF2Mrke+rRaHtatJhh2vtlX7ymTAL9oEboRCFkk8LUGoVfwKTqw1/NHKtRUnuyC62UIWaPCp+FiCillEcaHp6ZJbXJloVot76if0YbP2tUUx/pJ89fhX8g2MZyu2RoKLp6oq7qMNSfJv4DZ99u3po2dgatRPvGeFXTdQyzYxyCm2h+/tBikfT/w8OefptsxG0nzNUuxSSABif6C9UXeBi266IH1sxV2beQX7qt1yP2gfeN3YXXw9Zi2168tncU/bDfd0k5Xx4eybtR/HoYy5dpEN+KyHG3ns1URBx6B9OBvE9oGpUfkV2YpjvLHPtmwmjYpfH9S9i+xzPAfoM3hvfT2OD8hJ8sW2ce+fz+EJhOdC5yr6HtaMs4mL84n34DP8jO+nk4Ew/ysJQNR8az9fN44v3Rtdj/XtWgvcMxm4+X9syQ0dnKmPr5JD4oKGhYHAHFls4twqxaqtOBVsXDmOa+M2i8P4TRaRCUDzC9i0FRfjeOyBH3ti4ATHXEfRNW0FwVGWQp/SFtbRjaofv63jbGL6knkH0RuP95oN176/FVveZijE6Bdje7S3vNev9kTGLF9jdvRpEZazwq6bm1FgztaGaducsGF7+N5uzor1nR0m5zzd1uTXhAyDUh/XXrR7sOcWrG7FXav1lfhF/6Ct8ToedNgnOCXtGCUJJX/qab25p3pj+05j1fvyKsxpYjC2TaEdXXuj9Sp6XhxP1m+2psb9blv+bjYLa1nXGPo7aEFh4y429BxgW6Pr440otm/0Af1ldMvyaOrcGPf8vJ4/2SQR5uHHiAc9qkdSJtjKapOZV7QDrjedx/y+IswvlClpse8bxmoTOLseJuvfwDefDCiUcgISTiP0xEMEITpeBcJCsjch6TGeu8XpBjhvm4csFvGnCqBrS4XP/QJR+EXHK4tWhajQlh2bbhDt1yF0c+eZkl/2TQvdimgxGTBjdm0rl9KfBmNvWztvbc+OU/nd1+tWbAVxF5+Jj9MmCO2J/+mA2h5+MVf9IAKO/tb2EnvoRyvsyouvM9Ic9BmObaq9mbYN1/gLxNguznmuLU1E3Th0XQVO0b7h6ypwXYOv6C+u07WY3Yq7dvND3VFtSIlf4BD+C+14aBCYVzbjZuOazhm+od1JVifGB7EAGQmxV5Nm5T1jz7Bry5q2dE1CX+3srmPr99qCzUl7gB9fnuG/TUc/4vuMG4wtpg9d01IXdXD1uOfH4GIsalrg3o8L+cDxln6BWL7+FOYq6wztA/a84H82469f22OgfqavyTlWa2IGk4GDLvAjiVE+1hbilLfJz/2CyZFseyy2NBno/7cknNCnDdtOWZFAqOMMwQk2pjvW6mNxt1P/79i/R9LAfKxkswHvok3Fg4aoW5IsaCKz4eFEzsDan0/5ZGBtIz9CfxSnBuLEwFn8at+x2FopGXAnT3h6tVt2xidvmhjsXfeOxR31Z+88tRwf2WzF+1ifRk/MJDHQJ1PTX1lrNaZ9tsNkYLdBdl/AUJz25Y+WgWfrtsgW2dqCQXJH7rbgrqZPskk2azhpWYbJAJOB4mltDhnFieKUM9HqM9kiW61YWtIOuSN3S3hZsyzZJJtr8ub6YjLAZIDJABmoYqCXODHwMfD1YmuuXXJH7ub42PIe2SSba/N3+fOvL4P7cfDxhzYgA2SADJABMkAGyAAZIAPnYYBPBngqXHUq7ERh7UyV/Z3jdIRsncPPe1vP5I7c7Y1JHQ/ZJJvKwlqvTAaYDFRt8ilOFKdeokS2yFYvtubaJXfkbo6PLe+RTbK5Nn9MBpgMMBkgA1UM9BInBj4Gvl5szbVL7sjdHB9b3iObZHNt/pgMcCNYtRGkOFGceokT2SJbvdiaa5fckbs5Pra8RzbJ5tr8MRlgMsBkgAxUMdBLnBj4GPh6sTXXLrkjd3N8bHmPbJLNtfk7ZTLw6fkymL8y5/7a5+UyhL9A9zR8/DUDMf7parl+rfwDbi73IE6//fQ0XC4F/zSx96fhRf8kufd3j37CX68t/nn0JnMIfPa1U7Y2Goy7L1vyF4Pj+g7rvLcP1hby2J/5a5qJ4ZHmVfgtcPQyfKooG/s/UNm+3LVfJ2MbI9vgJxOf4Ppn+9dY9S9FezYWrI+xvuA4EnM63nF5a5twX+Lv6K9uS9vxup2DiQfIvmr5gXhUe7nXq2yKj/vomLOxciP2jva3vsMxX3/fsi0ch7TbwufIkKyJPjbG8X8ePuOeA9+vyO/pkoEofBEcC1K4rwvBOSwJXRDPQvnYVubgFR15fSHeN7ar4rTCXK8FlXtsYDZL3RZjYGkVcVnBH/fYG+v2ZWts854c4bzWf4/B1urULWMJdkItvE9DbhlDzzp9uetvq6RZBb/L5s2XkffGn17jxr4dx79sHjHR0E1/oW+Mh6PyWXuotf79ZdAkxfk+jOcyXOJmdLyePSPSj6/bdaOcjb+Tzl5ls+McDSeaQEb73zN/ZOWednrUlbFd8jUh15HpTj6PWodrondf0P6pkoEgLE/D05vsyQAYxC4EEaM3T/7JAZOBHouwvs3gGw1Cmk2Pn+h4P795GV6cn312DwtcAg4+BQrtQllZjJ4TOR2IAapQ/3MUzJfhRU/YiuIxEcgcfzFohnFof7NzgUTVzUeTDGsnFTmZn4q6zPHl2T1tsX1GUYJ10fPa1cB31zjGNrdrfMI+uBFx9jEbKmUwtK335nwVtMfZ+WkINlcmJ/q/yT92POizMLaPw286r4n10XScsFaenl/GGqprZSMm+3JXr2vop/r3luvE9NR1jWWBAdUb1RnfL26oi2susPr0Bp7QztYplM/aRS5Hc5c14HVYGZnoL82/t93Xaf8qm2IH1Xw8tMRYEP38/BJ1PtaRNoz+w5oNT11En2QP5MvG2LZUu6S8+nLUl7OtlpmIpXN1dFyleV3RPc+Prw9zkjk//fRp+PhG4yvcv7wML/FbJrLuROeCDz4W9gNYP8WV2icDSZ+hrltTc3Z5Bls+f/RzCT7XGBSYPlkyEIL4pAApRAqVN/DL8EmuJ+EEh2rZTORGwnbw+1fFaYX5BcGXjZj4RIUtLJIAd3hfKhcWbPCj+FCEyTAhCyu0LeW8n6fqKw+yuKR+4kUDiA3UiZFQ38xFuJqeC44riYHrE+2URE7LiF0m56hjXe+1L1vB5hrw9FV9M2UftGEMqJltYwBGhvRrbMin4cGyMtW/ivuYwXm/hHGHpAO/7oh8TzLVdJxid7GNjivyqbrp+9yGyb7czfsprf1by1ktCfZ1+iN8FZhMZVQLdIMTxoCMlMbn6zu/oc8853LA5pM78eVn0aG8fBYnQp/hsM2vTRm3rq2XX+x8dF3oOtZEPIwN2lG+sv5K89rjtatsor6oz3XOuI6lnNoprP3ESSnmGE60bT0xh7YjD87GyISUGWsX+jLwG3QYr8v7Qn+qw2bMvpzU8fMP700Zscuk7vlDtcAtroFgh3Ddv3/+ZGKrMhq+ci56V+qr2maog2kdKZ84HrWFt59hQZ+mJR9fxJahvjx5y+q4Pk6VDKhR0eF6LTr2oo8pAVYx3Bjc7LTloMKTbDAdmK6K0wpzx8UQ3svm2/UNPrL+tUHTzTWIgj0pN3VQ2LS8Cq1+NqeaKGZ2LNa247HgfV2sPtChqMS+oT7MN7SRxoB28vekbAigZcEx81/BlzjvvmyBzXReIM5T9pmyh7VtaNsE2oKvclbzz8puO//IuByjBY7s3JJ98nHlnxeNM+dz4nO7OU9rF7KG7/tyt3w8OLbr75PfXFnjK1jv5hQ/buwcF2HjrJsm9W38rGtFX32bBe2QvkI92JRNldf25NWzWNj4+es+MUi6NjVP13eYv4zPjKm3H/q0f5VNnKO8D/sTNx6wWXbPcBK5kVgoWmHLQFvOZ1l7+rluHWdtLYyldlw4Fmk3aq+uBzuvKd0Lc3B7ibCmoh19nAh7DN/3m4/DP+OTgOD31KZdj4brpTbL9h+qBakvy9xVu5gDGU0y7HhdH0wGvCgFwzigoxjKhiFALlD5RMEaMThCDWydpE58hNer4pSJfI85o62nF0CeoIG/ZFGGzZsVJrPQssUY703Wt22pQEZRibaBscRrjhnhb8HGbdxHGgPaKYhSIYhPzdGMax2e+7JVsLn40a31KftEn2f2QNtGv+EpbAxIqd+cVfw81b85adOgGduu8wuOFeeD73UOaUOVEuy7xjkRAN2a6DnnJbrTl7s6Hy0Zry2b+HLX0VdYbur6SD8yPXBtBD+F2Pdv8HXCFBOfho//NfznG6p12t8//X/2kOJm3CxKef95tLnSOf0zfb1CD13ca3xqoLbV8poMKLtJC9EWR3p/lU3QsJEvq5KBYLvSYYH6MPzHAZktYV0vX8fQlrQzjsVQxmkv9GfHhfekjtfH6XlN6Z7XWlfX95X2cr4/0VxXN8YL0OHUZmIxrR3hEeZQZbPCWoxtQt/K81W7MBlQwRi/JgeGe8FBkAhkGwAE0mTdUTBVhMZ9qcOO/npVnHKbNfmMizwLeLLANHkLPgx+sP6FReoXmX3yowHG1MkWY7w3WX9awKzfYSxoHzMXO+fYty+P9W05fXzugnIQBydqtky6nj3WVY4LQmPH34fvvmyhzWT80Y/T9jG2kmTNsxbrpmBUZGiqjgbq0eNt9Nucf2TMo41RGs+1NTHJFM7t7nEGu6ttgj3d2pu2eYsEaAmvfbnrs1ZwfsmPyATaF69bvoI/UtzybekJPWpT6b3nRDdNto80Jpi/KQ/XXdt4DzZNaZ6F9nWcWB7f49orjf8A10psGk0y80Wfq03t10HyZE2/+hy0wta3bFj7p71QqU7h0MnEFmjLaA1qBZRxfsJ5yvuxvsFYTBm4bsbhGIS44OvkXweHMfmxhrVifCBt4NeExmPDOdjxmLZwHUy8N+VH40/717SWrS0n68t64JMBdSieQKjYqGggkABoPO3I/ytSrfdAryVxSoKdCXzLeYvti7YWQcnv2YAEiz5ucNyJlf1F8rBQ3PWX4RMuRiMisrg8K1jfLjojYMYWIjCGtSDaYQGHk7TwaP9KYuPbte2pEJlFjzbCX4SfnGNHXxpbpH76smVtFFhJwqlJlL+O9lG/q6/i5hva01/MknvT3OEpa/YLxIv9k7GW2TRxHFjSTQCODd+boGjmfO8406bE2db8AvHiOSdWWmpOX+76jNnOH1jEmIWaaRJ8q19Tv1Ni+yjMI9MOZSisrZRgxHZG5W2byKxqWKyrmh3XH84B1rFbB8hVLG/7Su3u+3qZzZm5Z/uYaMds7xJsDbFF9A1jTrIjHCipPbE9tDdqZ+bvpDeoXTiXBbEU+9Tfz1JGhHXfX2FeaRzO92HtBDuFsbj3yKLGCv3OfWAHx134BeKffvN/syeMQdbCUpuh/fC90efsSdmcXcR3YW6axOP8w1o4ZTJwFEHY0zjL4rRvQd2T/dYcCwr+mv3e2tfDsyVCrRvzu/3jgosG5ywZuNUH7evJRlXHiQFxJ2N+eO52Yuf2bD1+3CGbS3yMScaSelhW9Mokz3o/aZndUOdfSdbyx3xlMkDBrPrrsxSnYyzwIFbZqcHOGX98tvA0yZ7YL98oubYKp6879HFkcfR0ZR9r6fG524edlzPOcZPNWgaStuphyz28jTTLa5eeprsxSWKgmhafTtSOd7/lmAzsMIjeA3OvuhSn/S7iXj5fq12yRbbWYg37IXfkDnnY03uySTbX5pHJAJMBPhkgA1UM9BInBj4Gvl5szbVL7sjdHB9b3iObZHNt/pgMcCNYtRGkOFGceokT2SJbvdiaa5fckbs5Pra8RzbJ5tr8Xf7868vgfhx8/KENyAAZIANkgAyQATJABsjAeRjgkwE+GeCTATJQxUCvkwoXcHq1zXZ5wjbFALkjG1NsbH2dbJLNtRlkMsCNYNVGjOJEceolTmSLbPVia65dckfu5vjY8h7ZJJtr88dkgMkAkwEyUMVAL3Fi4GPg68XWXLvkjtzN8bHlPbJJNtfmj8kAN4JVG0GKE8WplziRLbLVi625dskduZvjY8t7ZJNsrs0fkwEmA0wGyEAVA73EiYGPga8XW3PtkjtyN8fHlvfIJtlcmz8mA9wIVm0EKU4Up17iRLbIVi+25told+Rujo8t75FNsrk2f6dMBj49X4bLm4/Db5oI/PpxeJr789K/vAyXy2WIf+7alH8ZPmk7D/y6iTipndFXzsbeH/gnwlcUDhlTZOEGn3v+Im8Xy9bS9m4ez6fhJbfr0r4blV+XrfTn692avjx/SsnwLy/D00+/pc9L5yc64dvN217a1pLyuk6EqcjmLevkZp5WXINLbDNTdl3uetjn0/ASdQTikOEBrn+27CPrv/305HVotCbUfqbNoFmXi7aN4xjrcmh7fN1udqQNWI+lMZW0U+eR34vrQOdwoNdmbKomgV2d3Ud7oDtsc3tbwmM2NstFad24espe6X5+zXIf9HlJ/by9+s9oG3x/fY71fbRq63TJgHeIE9C4ERJQ5HO4j6AkoQviYgH25RfDvL6j7wWmmTgtEJ0UDLJAcssmZ0G/s7ZqsFkaicIG8xmNoZV9bmhnVbbQ1hIow7oO61w3FrMMlOZo2nLre7y5WdxmqZ/CNfSlfx83aTfoTAO+e82zdburclfw273zSX7HmITvZdMn8clsypHXyTUxwY8wEtYK9ifvY2z9PHyOSUSm4Zk9AreQnFeMybKO45gYd9bnvfbvWb8Vm9GumSYkdu63Vcu2amwaOMY92swchPORriP/K3Gxtp1qbIllTpUMhIXxNDy9wWTAgpSDFhz45J8clDYNeXk07iO9byVO9TbRzdSLP/0yixkDhZ5yyAmZlpsMfNnpWDwZljZfntMJWTxZEuFwJwpPzy/Awuch9CMnZZoUSvmnN6Gt2I6IzlgUdK7hlLrY5tS4s81bsW42nn+DOerpnqmXBY56n9m1VFtvTbbCPPONiWwk9JTV+TFuYmqe3FzbiIh/3wQduTz/c/iIGiT+QX2JTxfwiWQxaBU2YFrOtytzlfdL+Q6aKXzrJk+Zew5PTP260CcqaLfnbO3KPMPc1Adqu1DW39N+dB6dXtfkrnYt1JcLTFm9cxukqevZ2lQf/rL8lNjoF7QzHnvwbdBB9Xc2DudbYdPHZdFQ00fJ/6N+7bzHYyn0W2p3J9easCk2ymOWs421r+iT1z/1k9WVoAO6AZd7vvzL8ILftJA+wxrX8lmcjPFF1748nS3WlbGpdv7P/0t6gnVBbdOnVTp+5+9Q1+sqaE/g8WX45K/JGPE+xPgQL2SOMt+P8BQtxnaof9FxZXa2Nkce0f7wDZSpmO/7ehqSlj8NH38qaPFClk+WDARQJp2iMGowUljkenC8BTgsEgQQnfw475uI0xI4ZXE5m4/8JYvh468iMuov46dMRPB0TMtDOyEgXeRrIiiE0g7W1w2a8uHnFcr54Cxj10CdB6bRfHTRu3FdaTMJmzCHc75SF8djxiDjNXyrjZb47May67IFwis+Df4B/4k/1F7GVsU5Yt3Smpc+o02RL90MYRBwbeg4U0DNOYqfxX8uAAcfyhj8deFEyoQ5Yf/SzzW+kTN5r4m0t48P8NhumlfoM/RjGPN9Sh3dIBgWS7Zsd21d7tqNe8yrbrYcK2JP8WfwTR6f1ObheuBbElW34THrIhs3cuDWgv8sB2xmMwnajByO1o9yURi3bgALYxqtSWXSj2H6sC+umdE4snlufL8Fm+ngw9rW2SDZL9xTrdPNr//qs2pGdqiV2nU2E/3w2qa+DLZMfUgZz1V4b3QIrqt+jepG7UTWlT+N2zIv0RI/Tte2YTYfi1sDeE3bD1oa5iq6qoz58YpNR/O2tk7zQJsja9iO9h0039dVXZS+vd3UL/4ARsYu9jF1FjJ8qmRAhQAdpNci1DGgBiN7OA1MCUAXfK+eeix0SBoPArP9+xbitGRuxkf5BiEGF1lIGgDkVYVNN/h6+h3710Xty+NmKQXN2P+E7x0XYeHpiYS8OqHIx5sxENuO15Mg/NOdsmTz8cHZjDmJHwrdkvHgGPC9t1G07zrcrc2Wm6OKfNpAh/Ue2cnKpK8VlmwyrhtZ8z4WwfZBxNVP/va/t1TgRX2J47Ft5uPAtYCnXbfzHfqTsQuTJT0MtnR95nbIP2drBoOq2iZfb3GN5PO9//MW3M37cMmcrG2TD67HJ2VLN/3hMzKTJZXgA1PWXRd/BU6Ba3+9zB7awLdX4MD0k68P06fYzGiWMKtMwfix7z2/v59N8YXYIPAxHd9szMnKubUPtvS+gc15/Cx+sm05rlCbMFGDMU7WHfsSWcf33p+gH25cjktfJo439Bl4DW2//J/hd0Y1EVGm3WfTfsZdnLfw5T9r7BZ7YRl8n9iz63jueqw/w7oZ70LumQx4gwlwbnOvj7uLcI5F8h7jJ8cvCQLblL1fnJaMO/nDCIsKUlwMIiZxods+gm/c5joXt0KQim2GNuLCA3Epic0o0XA8CTtRXLJFGduO15Mo+nt6GhDvp3mF+yFh8KzC+CbrFsaDY8D3fo6ZLXpzui5byZbxAMBzhaIs/OFpywRjwTbJf2VbSXvKrwZHbTP3j/h0PgHBecB7bAv9iO/xZBD48WOHz7p+RgkAlHF1kgaiDd2Y4LPOydsA7YXv0+Zyau2U7QvzL6yZqTrbcXfbeO08wLbGB7bt5JtwPeqHsocseNuldmPZeECW+cqVn2Dhn/BViqThT8PH/wr/WcebH4Z/080Tvj5/gpNrN+40Jm+DjGVrF1e+MM4FXIzbszZd4/7dbOp6Q7vC/iZqvpSL+x5jJ7Gja2OSFzjxRu0x7Yj95L7nwbcHfpqsG3yPyQgyje+9XyKPoW2nI36uUXtDe0nTXoZPsY6MEz6b9jNb5TYMY4Q5ZWsrlje2ydiO98bXY33Dv7WPGW9sq45fJgPqMFgoo8UOcEShyWFeaPhRHzuvf7c4LZhfADpt4J2t/ELQTTIsBlMWrmsAuTx/hO9ny0IVYZuuCwKnj0FFTEIdSQpRwJARvF6Yd1zUeg/HjXVHbapNQChGZewjTS962Kb0acZg7lsbrcHpmmwZjsR2eEqECVa4bu1h7Kb+c6/Ghk58UaTxfRBmHIdhSjcykMBG/iEgJ7/YtieZ9uNTfur4xjGa+SFzZiNqbaV1vB2NfXDMUkeDddZ2mmddQFtSfk3uloyrtmxiEW2IPsDriVHc2Pm+kI05+5v1ov6wfaQx6X3tN7FXnp9tJ7AjdbIxGS5lDRru8+QB1+lB3t/L5thGyAWu/6nr6rfL8PJTSOCCHmryr/6Utey1aWpdh+taPzGCPp+vO5UMaDJq2pZ9guvHXU/94dhD36Ee9q1lQhwNXMlTs4z/2O6ktqGdp95b+yP3vn3d82DfuF5NnNGxy3gXss5kQI1pMujMmJkYKYApwwXhW+iAsjDur717xfvHUl4AACAASURBVKl+ntniUHvigjOLQcqL/0qiUNqUBN/BL4abNu3C1fquTv7LWGHBwleE3HhxrDp+eDV1ZNx4Emru6yYpJkTSl24MMzaLdQvj0Q2oPtlIn137Gf8w9no/1jO8HltuTCL8ut7VjnETHh6Jox3jL5ypD2KdbI5iZ8+Waz/6zgYbb0Mo+yK/iJtOq8THOsbRSel8v7oGMLCY9/k8YCyGb2EL14pvO2OuFDB9HfMLxLhO8T9xkOtqq6ztHrxpm+tyl/msyZpClmHNGr+l/0IbmVZGVXdw/Ud+8jFO+mZiHFrf86Wbxyk7ZBzEJDOsBRyTn0dhDZr5KU86hoO93sdmQW+iPYMfjA2Rl3gIYdsItlUf4lrOfoEYtMTEEXM9a0d9Zcooz3YcVjulHVNP29Y47NpBPpO2IlMas926QA0saZvWSzZEe6C22X1EKm+v5zFJ12Q8eIY4kOav87T2MeNdyPwpkwENBnydEubx9fvEadwebU+bKANkq4aF/fxdCPXb+FWCYtyohUClwXNcvmbe/cqQu3623ZuvjzYestmGTU1y0wY7tRvuuU213VDrYW+pztE4WjJeJgMLs6clxn2kshSnJCKP5Nc9zIVsXWfr07OeBF0vu6lPzSmd/a7xpuMq6Dy52zlLBZ/tjaFe4yGbLdksPxlIT2716zXpqQHe6+XjvbXLZODEgrMERopTS3FiW8ge2SIPyMNa78kduVuLtaX9kE2yuZSZe8szGWAyMNRARHGiONVwcksZskW2buHm3jrkjtzdy1Cv+mSTbPZia6rdy59/fRncj4OPP7QBGSADZIAMkAEyQAbIABk4DwPxycDAf7TAjAX+/vvvmbu8RQvcbgGydbvtWPN2C5C7223Hmn0tQDb72petjy3AZGBsE14pWIDiVDAKLzWxANlqYkY2stAC5G6hwVh8NQuQzdVMzY7EAkwGiEKVBShOVWZioRssQLZuMBqr3G0Bcne3CdlAJwuQzU6GZbOTFmAyMGka3kALUJzQGnzf0gJkq6U12VatBchdraVYbm0LkM21Lc7+mAyQgSoLUJyqzMRCN1iAbN1gNFa52wLk7m4TsoFOFiCbnQzLZictwGRg0jS8gRagOKE1+L6lBchWS2uyrVoLkLtaS7Hc2hYgm2tbnP0xGSADVRagOFWZiYVusADZusForHK3Bcjd3SZkA50sQDY7GZbNTlqAycCkaXgDLUBxQmvwfUsLkK2W1mRbtRYgd7WWYrm1LUA217Y4+2MyQAaqLEBxqjITC91gAbJ1g9FY5W4LkLu7TcgGOlmAbHYyLJudtACTgUnT8AZagOKE1uD7lhYgWy2tybZqLUDuai3FcmtbgGyubXH2x2SADFRZgOJUZSYWusECZOsGo7HK3RYgd3ebkA10sgDZ7GRYNjtpASYDk6bhDbQAxQmtwfctLUC2WlqTbdVagNzVWorl1rYA2Vzb4uyPyQAZqLIAxanKTCx0gwXI1g1GY5W7LUDu7jYhG+hkAbLZybBsdtICTAYmTcMbaAGKE1qD71tagGy1tCbbqrUAuau1FMutbQGyubbF2R+TATJQZQGKU5WZWOgGC5CtG4zGKndbgNzdbUI20MkCZLOTYdnspAWYDEyahjfQAhQntAbft7QA2WppTbZVawFyV2spllvbAv9/e2eTHLfOq2FtxWcN8agrE0/uMOeOv6Q8yxKcXTh115Aqb6E3kFTW8a1Et0gCJABRbKotSpb4nipXd0v8UQOPXgCkOgdsbm1xzIdiAAxUWQDiVGUmNLrDAmDrDqOhy7stAO7ebUIM0MgCYLORYTHsrAVQDMyaBiekBSBO0hp4v6YFwNaa1sRYtRYAd7WWQrutLQA2t7Y45ht+//0zuj8HH/5gAzAABsAAGAADYAAMgAEw0A8D2BlAQVhlAScK+A8WaGEBsNXCqhjzlgXA3S0L4fxeFgCbe1m+33lRDPTr+0XfHOK0yFxovMACYGuBsdB0NQuAu9VMiYFWtgDYXNmgGO6mBVAM3DQRGjgLQJzAQSsLgK1WlsW4JQuAu5J1cG5PC4DNPa3f59woBvr0++JvDXFabDJ0qLQA2Ko0FJqtagFwt6o5MdiKFgCbKxoTQ1VZAMVAlZnQCOIEBlpZAGy1sizGLVkA3JWsg3N7WgBs7mn9PudGMdCn3xd/a4jTYpOhQ6UFwFalodBsVQuAu1XNicFWtADYXNGYGKrKAigGqsyERhAnMNDKAmCrlWUxbskC4K5kHZzb0wJgc0/r9zk3ioE+/b74W0OcFpsMHSotALYqDYVmq1oA3K1qTgy2ogXA5orGxFBVFkAxUGUmNII4gYFWFgBbrSyLcUsWAHcl6+DcnhYAm3tav8+5UQz06ffF3xritNhk6FBpAbBVaSg0W9UC4G5Vc2KwFS0ANlc0JoaqsgCKgSozoRHECQy0sgDYamVZjFuyALgrWQfn9rQA2NzT+n3OjWKgT78v/tYQp8UmQ4dKC4CtSkOh2aoWAHermhODrWgBsLmiMTFUlQVQDFSZCY0gTmCglQXAVivLYtySBcBdyTo4t6cFwOae1u9zbhQDffp98beGOC02GTpUWgBsVRoKzVa1ALhb1ZwYbEULgM0VjYmhqiyAYqDKTGgEcQIDrSwAtlpZFuOWLADuStbBuT0tADb3tH6fc6MY6NPvi781xGmxydCh0gJgq9JQaLaqBcDdqubEYCtaAGyuaEwMVWUBFANVZkIjiBMYaGUBsNXKshi3ZAFwV7IOzu1pAbC5p/X7nBvFQJ9+X/ytIU6LTYYOlRYAW5WGQrNVLQDuVjUnBlvRAmBzRWNiqCoLDL///hnd37dv3/AHG4ABMAAGwAAYAANgAAyAgY4YiDsD379/H/EHG8wx4IrFuXM4Dm7ewwDYAj/v4efevuAO3N3LTut+YBNstmbMjo9iAEVQVZIPcYI4WfFY6zPYAltrsbRkHHAH7pbwsmVbsAk2t+TNzYViAMUAigEwUMVAK3FC4EPga8VWaVxwB+5KfOx5DmyCza35QzGARLAqEYQ4QZxaiRPYAlut2CqNC+7AXYmPPc+BTbC5NX8oBlAMoBgAA1UMtBInBD4EvlZslcYFd+CuxMee58Am2NyavwMUA1/Gx2EYh8nf4/jlKEncv4/++h//dYDnv8/D09ddE7Jb4B1NnL4+PURmgt2DuHz5xCw9jE//WUtwvo5P/wzj8M/T+LUhk+Haifv/PI0Pk3tiGOV3veXTj3L+aGy1spvyL3EkOR4GweyM/yWD3FdqSzgmxmnIays7rTVuD9wxAzp+to6d741xTk9bX+Na2t9mnCOymWdtGKX+FO/dfx/r266lWzM6Wh9Hz8PqcYqBT19Eskxio461uSmL8NYCmSsG5LXT+eqbpnbeFdsdTZyUMEVbU9Luk+g1E6L9igHJDH/neiH7GPfM0dhaRRMy9+akGKBAFfxJmscFJ52T/v9ujjEPw5ASq3BsTfY/BkP3+KQH7qb+Zg1MTNxju3KfTHxeEOMm90HmXinPf1wm+Xsdkc0pa9/H3DH+jurVaJc619L/mXnDNdctrJ2J1YMWA5nki5zKKyAxIWJnf3oMK6kumHJy/ims2A+ULDIEYQwWSyNs1Jf7fOex/Kr/jAipNmY8Av2jQ3U0cWJfPvzzkFbsmQV3TKyyclvvd062vifGnuRuwr9iRd4WGf88jo9uh2BSbHAADudSAsdzcL9ykqYY4e+idpR4vLY7FGsL9dHYWvv783jKv04XrNbIoJj1v9YWxbXSuDJnfD1nf+2Bu8CA8bdix2qGZug76yDtQibtmol1nlE7Rmir+aY2vLup+LQaqtvG2C7vh5O9PyKbWdZU7uM4yPlSH/O5lemnx2ZmRdz8H3r64inF5ypW1b3ATPP4HEcz1/edC53zsHrMYoAcGBNy41AFDreNSV4+yKo+LIDUR4pYaJceCQmfuXBgmMyrApvAiolkaKvnN/0/gNAdTZzYT4++4AvBkH315B8hogA56xsSBC4amCNaZY3j+yLQtGXBy/DDCV4IaLZf2e+SQ7sKzImbavMBuOHrKr0eja3Sd3nPuYnviE1dpBIjRvP8vNSegyBryoMvUOU9YJLDg3DyHtvm+vbAHTOgH4mUMWgm8aH4pJhUWlnSKjl+aievxY2rOU0rsWpOE4vlGDmfnuXYEdnM+UYf06ypc1bPDGuqLTPBsdnpF2tljtuSvtl5qa1ksBdWj1MM8ApCfE0JuAbFiY8Qo5yzDWhx9SNTMPikzbcPATRA4qpB95ngNon9RJDUfOLaBKTT75BEdDKe6LfVuaOJU7CnCzDB3i7weN/98zR+EcWAvOmdLbnNVxacyITxm/KpFjk3TvKn6UdshkA47Vfyp7rWHNd8/eKxkNJ4H+Xc0dhqZTflXxWUePUpJUxcDIZdqHR++puBh/GJd7M+fRFcfix9aWXT0rg9cJd0SPpbapLVIHlOvk9xlZP4edvafmHu6bVQO4rpvOKv7gOrc/SZ285fg/y+x3t/RDY55mpNEgsPJV/acyq+ynjqfGmZTcUAszllbYYBO6/S3ZRjxpzyxKwepxhQCTfBQJWhEg/vTCFGOWcb0KKj5RyyTRzjyf+Y+eEpvD7SlhQDOCtMcixZqIikvhpe0Wd2vgZtjiZOLEyP/xIrnx7Jd19FQsQciWTK3+xOBKzgCKacfZVPbVshXv+bti2VSHrWpv1KPlWcRyb1D89VmwYclK7v3nNHY+ve73mr36zviLXADwWorP85uQptpKbw/eAfm5Mragdh5Jbt7jnfA3eSgWQjqWVWg8Q5YkzpltNHGSez/IgxxPl0LTTnQMWt0lJakOEFDcV+0umbMVfMm773TEL4Adsekc3k3+9jWqwQCXXJl1bPDBNq7ElstvFYxN9b/0iInZdYSFrcD6sHLQa0szUo7oYXYpRztgGtVGmqxzn+eRgf5I6ATxxF5TsnKmo+cW2ifYLvYwrW0cQpMBGCDb93Qc35U/Iyb/dCkHR+Uz61beUceX+HADXtVwpc6lpzXOdEUjBWGnvPc0djq5WtlH8zfgvnSW+y/teJlOQ8amKtZmXmb/W99xq3B+40AxRbFDtWg6ReyfdL4lK+X+RbzW+1VDPMSeXZk397DxyRTcta+CyKR+t3qTH2nIqvMp46Di2zU4bstVj7xs92Xn9NYnx73lxXZNr1s23l9zvA+4MWA+QsXj0wTlAgmHMeAuNQd0z1ycAWwTbPjMtt+QiYdbyaLyOUuWu0Y+z8+WjixP7yxRzZn/9VFeXrWd8IQfC2N35T/ZhHfoyD2tb+ZiA+ilQOuDeFR11TeaxZVnfg7GhstbKd8m985CstNqjzWc3Q3CnOo8a51dU0ZqvvcoRxe+DOMuD8ojiyn1krafVfta3WF6OVTlMUr/K81U57fVqHc9/nCKwtvcYjsjn1Dfk56k3Bl4oPywszwrqlx/G2NWxOr2UmHtp5HatqrH5YPU4x4Fe00jbhJKCRU8OWJkNjoSIglLMTJAEgmsMmaDw+b5HSGLe3TGfgMt/no698HE2c2JdhZ4duaPKpFQpu69mJfreCI0XB+pTb8r9u4BgS26NcXJLPk6+5H/+rBYnFXPBQgZl5NByF71seJzf2nseOxlYrWyn/+qKM+Ig+nura5BEOwZ3lPK6oxeB8LE7WtnsP3CltixxJbUox0rNEj1OmuKYZTNpVYoeTQBmv0w+GnR/Vdfkdd3GeYys/RsQ7/XT9R9S4pewekc2p3qQ4mRZNNRvJl4IzisFBDx1DD+PjJ/kvAGbipsnpsteSW+iqiKO9sHqAYqAkOji3VGTubX9Ecbr3u6LftvcV2NrW3uA72BvcgbuPei+ATbC5NZsoBnLV4tJjM9WlXmk+NtwQpw38J1bEJiu+vCO1lM0DtAdbG7B1AA62Dn7g7l7uxCpu3G3gXQCxewXmxP8odZmtweYye81rB1idt422MYoBCFaVYEGc9I1Te4Oh3W27ga3bNgJH69sI3K1vU3C6jk3B5jp2BI/1dkQxgGIAxQAYqGKglbAi8NULdisf9DguuAN3H5V7sAk2t2Zz+P33z+j+fv36hT/YAAyAATAABsAAGAADYAAMdMRA3Bm4Xq8j/mCDOQZcsTh3DsfBzXsYAFvg5z383NsX3IG7e9lp3Q9sgs3WjNnxUQygCKpK8iFOECcrHmt9Bltgay2WlowD7sDdEl62bAs2weaWvLm5UAygGEAxAAaqGGglTgh8CHyt2CqNC+7AXYmPPc+BTbC5NX8oBpAIViWCECeIUytxAltgqxVbpXHBHbgr8bHnObAJNrfmD8UAigEUA2CgioFW4oTAh8DXiq3SuOAO3JX42PMc2ASbW/OHYgCJYFUiCHGCOLUSJ7AFtlqxVRoX3IG7Eh97ngObYHNr/ropBl6/DePw+WV84+T/18t4if/3xOfxlY9f38aXz/x/UxzG558OytfxObblc5fx5dd1vKpx6Fgc6zxAQ5zYl8THt9dURP18HtP/MViyFPq8/biMw5DjhVma9tlaCPacD2wxW9fx6lnK6QhpUORO69TlxxvxqI8H/XLj6+ORxxNqVS3LfXGX0S0Zu2RsvF5HFy89O7PaJmOi5vVm37l55+aSx8111vr6aO36YpP1b2VGJTcuf4vaWcG37NsJc10UA74QcDBEpxJ0/rMGUBYNoZ9N1GRQluMEwNIcDPg5XvsUJ+s78rcSlnkefACKgU8HTHkuJXJ2vj4+gy3ycwxAU1aihlFAUwWm7xf6hOOkWf4461fgtHfWZFLYD3c53ZJxz7LhPjtu5rRN9qX3MbYu6SvnnZtLHpftz62N/bDJflyb0euotFAtejiOSnz3ydzpi4EQRC/jxa32R8FiAN3rMsdrwLQQykJCBp0zvO9PnCQj7j2LFbEkVhmkfzUDoc/ls9gZEKKk29r5+vkMtnhHYBizrFCy7zXsRjGgmKJC1K/wyveCQclub+/74G5GtwwPE24ysTK2MX0VN+7cgr5xTMNk9jjN20NB2webHOMaMEq7W9mc7xajksWOmOugGAgrZllx4QQvJna08uCTt/AIR9pmd+DS+bgl744xyHPFBgN/7Ne+xCnnK+dnt5pA/o7MiLa8sisTNhcYxcptDJwkMpovMZYUpJO/B1uhGPBJzoSVoDnPP6fchYUJp1NpJ0EtVhCPaVx+LE1vmUcmT86Z/Z59cDejW0Z/ZHx0DE0Sbqltvi8tivjHZzV/t/vy47czu+lyrshkLvaeVy/7YJP914BRjtOez6lGFhntlLnTFwMcAKTY8TF+9ecm20YkVP54gDYE2iR8sRCg5K80B8911Ne+xIlFKvc6Tcq8Tym4xsSMAqb/XckkwZuydVQu1rhusCU4M6x4TfH6ormbJv2sS9TOPxZ58b+LcoFPtSdWJwExBkFxPSc+1hd3mh/+rRsvRsjY5d7z8XltG6hgoHFpN6C2L48v583OpfjTc62hPR91jL7YZL1ZkVGzcOs5o1zuJqOdModi4MrPlrlgalYfcoFZbYHq9tNigSE//muf4pTzmxEsJxyxEEhBNLAgVmLVClpmDCVAuXnPewxsCd8qzQn6kn6cTjx9e/U/8Ixb4HPJPR3nxCslPlq30nFxHR3w2Bd3RnMMGykpd+24sMxrG+sdc5UKzeV907wzcxkOZVJ3Zm77YpN1Z0VGDTeLGDV9e2Gu02KAgmxmRV+KUwLIwar7BCHS8J4Zmj7FiUVKvmqfx92hIRUCkyClErwU9HpfmWU7gS3Bl2UlBibNndIm3yfwF46HZE62UdpkEkH2Q2+vfXGn+Ym65WOgKA4dG3HBi/pMtE2PFWPm4r5iXvFYBxcZnkdiNWilnvfMvPbFJuuf9a/8LFip4UxxIx5HW9xXXgNf5zlfOy0GUkIWVt34X9xwTibnq5Vcd1zAGAO0HUesqMg2J3jfpzjlbnojDiQ6avU2BlPqbxM86qOC3gkYuTc4gy3BmWUlcmG4UzrFj2y4ceb0Sx6X7cXcca4+jvXFneXHxC7WLMcfLZLxDkBe20I8VPGztq/UTJ5XHuPnvPmcvydoV4yPnZzVvthkvVmZUckNP+5dy6js2wlz3RQD9yYq6Bdu1D7FiUUKry3vA7AFvlryNTc2uAN3c2zsfRxsgs2tGUQxcPIVhrWAgjhBnNZiyY4DtsCWZWKLz+AO3G3B2T1zgE2weQ837+mDYgDFQPo/6RZsAXGCOL1HaEp9wRbYKvHR6hy4A3et2HrvuGATbL6XoaX9UQwUEuClxjxze4gTxKkV32ALbLViqzQuuAN3JT72PAc2webW/A2///4Z3Z+DD3+wARgAA2AADIABMAAGwAAY6IcB7AxgZwCPCYGBKgZarVS4gNNqbIyLFbY5BsAd2JhjY+/jYBNsbs0gigEkglWJGMQJ4tRKnMAW2GrFVmlccAfuSnzseQ5sgs2t+UMxgGIAxQAYqGKglTgh8CHwtWKrNC64A3clPvY8BzbB5tb8oRhAIliVCEKcIE6txAlsga1WbJXGBXfgrsTHnufAJtjcmj8UAygGUAyAgSoGWokTAh8CXyu2SuOCO3BX4mPPc2ATbG7NH4oBJIJViSDECeLUSpzAFthqxVZpXHAH7kp87HkObILNrfnrphh4/TaMw+eX8Y2T/18v42UYxsH/PY+vfPz6Nr585uPD+PzTQfk6Pse2fO4yvvy6jtfZcc4FM8SJ/Ul8fHtNRdTPZ+LIsSFZCn3eflzGYSBeHGc32m8tAnvPB7aYLWZDsBJ1iTQocqd16vLjjXjUx4N+SQ5Jv+I4Yu44Vx/HwJ3zc0bPZEyTMfN6HV0c9Uzd0LCJ5tX0lWOaeffWqK3n75NNsLg1Z3K+LooBXwi4ZD4KDEHnP2sAZdEQ+tnkTgblTN+TBtk+xckmReRvx1L0c4aHyJksFjnBy7SPY9n5+vgMtsjPMRliVpL/o4YRKyrZ8v1Cn3CcNMsfl+9pXJpHFgoyKPTyHtzl9EzGtKBVqdB0nx1PGQ0rap7j+FZfOWZ4n+ZN9wHYPKstwOLebJ++GAhB9DJe3Gq/FKy4CrZMhFSwJVFk0dLnznXTInCyWBFLMwm8LCZ51e3yWe4MSN5k4D0XL0uEDWzxjsAwalaICUr2vYbdKAYUf7TC65J+dTxqX7/MOT775m5GzwQzzkaKG3cuE0NVG9ppmHBc1Zd4pGvguLpES87Sti82weJH4LaDYiCshmnB4iBokzFakfDJW9hO16tndsVC9/dzyMdBThR0+xIn5kO+Ol+7VTHtc3UT04or7xr44tAFT0rm/GNlngkqCNQOg5yrr/dgKxQDPvmZYeX555S7sPjgdCrtJKgFCeLRjRv075IejZwpZhXPJ9Kv3Pfqm7sZPSsUA46tSYJeqXk1fYOPbIztSwuZ077YBIvs9z1fT18MsHHzxUAQmpDE2+1PWhURz4CHQJsCrx+bxNP99mCyGnKiYNqXOJUC0DQp0xwQH54Leq8SPBnsZsY6ETd8/5VewZbgTbFCGuQTd83KNOlnXaJ2/rHIkPzHYoC1jBI4vdAhrqET/sCd87nmin8Dx2zIuOne8/Flmhc4LvZVzNE1ZXYhSjpypnN9sgkW92QYxcD1OqYkXyZqvHXPQdZsmSrxCoFUBejM+T0d/d65+xSnXIJkBMv5WRSEHPACC/RjTZeY+b/L+PJ/4Yfr3C4Vorm5+jgGtoSfVTEgdpAiQ+H3KjJJY/4mq7ZilVe1N483vlcbjtof3DnujJ4JZpxfEzeuXYqFzJzTNdayWc37dbuvZah3XeyTTbBo74MtP3daDFCQpa3yJHhS/LhIoB/gqR9NcfAmeP0KhgEZxUD613ZOZQvrZ/osguLkBs4keCFxk/wwU/299hn4ZvysWJFtNHdq4UGs9IfjIWmbtqFkziR8E15Pdb9KG+r34M7ZQ3OlP4vFMcdMXKlfqHk1fYlJpYsdP8rWJ5tgcU8t7rQY0Ku5+p+DTEInn8Xlf150bvXNr/xGsdRBZ08HrzV3n+KU86MRLApiYeWfdgAsBzbBo+Qt9OFiMzdXH8fAlvCzZSUm5oY7TuJoxyDp0px+8eJGYDS1F3PHufo4Bu6cny1XJjayljkuOTlfqnm1faUu8rydMcnxuk82wSL7f4/XboqBPYx7pjn7FKc+kqK9OQVb4GwPBsEduNuDu5o5wSbYrOFkzTYoBjpdeVgKEcQJ4rSUmdr2YAts1bKyZjtwB+7W5GnNscAm2FyTp5qxUAygGKh6th/iBHGqEZR72oAtsHUPN+/tA+7A3XsZatUfbILNVmzNjYtiAMUAigEwUMXAnIi89zgCHwLfexm6pz+4A3f3cLNFH7AJNrfgTM4x/P77Z3R/Dj78wQZgAAyAATAABsAAGAADYKAfBrAzgFXhqlVhJwqyisR7rFysxQDYAktrsbRkHHAH7pbwsmVbsAk2t+TNzYViAMVAVZIPcYI4tRInsAW2WrFVGhfcgbsSH3ueA5tgc2v+UAygGEAxAAaqGGglTgh8CHyt2CqNC+7AXYmPPc+BTbC5NX8oBpAIViWCECeIUytxAltgqxVbpXHBHbgr8bHnObAJNrfmD8UAigEUA2CgioFW4oTAh8DXiq3SuOAO3JX42PMc2ASbW/OHYgCJYFUiCHGCOLUSJ7AFtlqxVRoX3IG7Eh97ngObYHNr/ropBl6/DePw+WV84+T/18t4GYZx8H/P4ysfv76NL5/5+DA+/yQoVfvL+PKLYX0dn7Pj8PlzvEKc2I/Ex7fXVET9fCaOHDeSpdDn7cdlHAbBjGwvmYwM8lx9vIIt4WfPhmAlMkE6E7nTOnX58UY86uOsX17/ok4FfUt9xPxxvvMfA3fOxxk9k7HO6JPjyDMlNUxq3tzx63Vc1NfMu3VitPd8fbK5MotXmZtpTQWLU33vohiIgTAKDEHnP2sAfVtqF/q55E62D6LGhUVqr8fZW0zWnr9PcbI3DPnYJVUxKZNJmubE+yAGaEoJdQAABOFJREFUVhaj0D4kYqE9kjL8s7WelZhIMSuJv6hhxJ0qMEUBEY5TQeqPT4vTpGtp/LX14gjjQdNyekbHPGdSqxwr7rPjaU7zMseVTtb2tfP2x2l/bK7NouSY3sf8bwnH/bB4+mIgBL7LeHGr/REGKS5SwOYcr2FKBYBurwLxyVbY+hMnyYh7z2JFLMUgp9slNlKfy2exM0DFgVqxzXKpxz1CcnXvNYKt63ilQkCxwhpCyb7XsBvFgOLPsOb9kzvG83T22jd3M3pm+JjwlNGq1EbGUhqfddKNW+wr9I6uoedFkr7YbMCi4VjFJrCYnmoQmt9BMRBW2ZJgCdHhBI8Fi1Y8QkAOW+mctKVkUBYVKAbUTSbAOt9xJ1huZcsEOfmdKaHjXQNfHLoASMlceLRMMsMiOF29PZ/95H2n3/cV+PR3j37++Tz65Eex4toGXp5/TrkLiw9Op9JOglqQIB5lUpXXwZlrkmyf8H3f3M3omUmiJC+OLcmSZ9doHvPqH7+NcfU61vVNvE/mOSF/8d7PfLe+2GzAoueYFu7845FaIyd8TTjuj8XTFwN8w0lR42P86s9Ntj/pcSB/XAfiNJZM7ILg5Z4Z53mO/NqXOJWSI81C9CkF0ZiYkRj5AsAmeCw8wzCGwhPFQLRjJjB2dc6w4rXGJ1Wau2nSz8GO2rkA+PnifxcVAx8xGj93bmtomtM5zdWVGOFFsBTrxDP/zI3VPF5M879f0eO6cXhMfz9P+krNpb6ZnYRetKBPNjUz72JRaZ3mCSzKey29RzFw5STeBVOd3Iet++nxEIjnjp8zsetTnNKNkoKQESwXGGNgSwEvMBJ2l8KP1PUKLo8ngy0f6+0VbAnOVDEQ9CjxQzx9e/U/xoyPParAJ8ai4zEJU2OLdpzcdfYK7hwDRs8MM0mfXDsuOPOaxzrIvPm+cTHtRl/DXurbJ6d9stmOxbR4UsFxpyx2WgxQkKVtzCR4+sfBGqD0o1EpVKmvAdkAdfQEr09xygUi62f6PKRCYOJrlYRJ9kzxeTJmJnaY+X5gS3CmWBHHTdKWtCn93sAlYeF4SLxUG/rXXM66c1nLmmwH7hxfM3rmY6PQJ1ckxJX6Oc0T7Xlc16emLxUhYdfKXpO8D/p43yeb1u/ys2Crhifmz+Z4NX07ZbHTYkCvbOgAmYQuPvLhkhgCJKzSiVUO/pcV/HNp59wVcAG0T3HKBR4pUJYLWrmNQZP62wTPf06rvDJB6fE92BKcWVZiAWW442DndWcQz3LP6BcXA5bNOL64hk6OgTvnc8uV0TTmxXFJiZWOhUbzpLb5XQEqVpf25Xk7YdHqfp9srsxiLje7h+NOWOymGLA3Gz4vC/59itMyG4Gp++wFtu6zG3h7n93A3fvsB/7a2Q9strMtuM3bFsVApysPS28IiFP+BlpqR7Sf2hFsTW0CTtrbBNy1tzE4vs/GYPM+u4G3++2GYgDFQPbfnLU3FcTp/pvM2hKftS3BlrYH+NjGHuBuGzuD5+V2BpvLbQbO3mczFAMoBlAMgIEqBlqJLQLf+0S8lV/OPi64A3cflXGwCTa3ZnP4/ffP6P4cfPiDDcAAGAADYAAMgAEwAAbAQD8MxJ2BEf/BAgUL/Pe//y2cxSlY4H4LgK37bYee91sA3N1vO/RsawGw2da+GH1qgf8Hh5L9Bksfi1YAAAAASUVORK5CYII=;" vertex="1" parent="1">
          <mxGeometry x="199" y="363" width="771" height="425" as="geometry" />
        </mxCell>
      </root>
    </mxGraphModel>
  </diagram>
</mxfile>
